<?xml version="1.0" standalone="no"?>
<!DOCTYPE svg PUBLIC "-//W3C//DTD SVG 20010904//EN"
 "http://www.w3.org/TR/2001/REC-SVG-20010904/DTD/svg10.dtd">
<svg version="1.0" xmlns="http://www.w3.org/2000/svg"
 width="600.000000pt" height="600.000000pt" viewBox="0 0 400 400"
 preserveAspectRatio="xMidYMid meet">

<g transform="translate(0.000000,500.000000) scale(0.100000,-0.100000)"
fill="#ffffff" stroke="none">
<path d="M2580 4314 c0 -37 -23 -84 -68 -139 -40 -48 -72 -126 -72 -175 0 -59
37 -136 84 -178 21 -18 40 -31 43 -29 2 3 -1 23 -7 46 -13 50 -7 77 42 169
l38 73 25 -53 c27 -57 33 -145 15 -194 -16 -40 -6 -40 38 1 92 83 68 232 -69
431 -29 41 -56 77 -60 80 -5 3 -9 -11 -9 -32z"/>
<path d="M2480 3635 l0 -64 -37 -6 c-21 -3 -74 -18 -118 -32 -318 -103 -551
-350 -642 -678 -24 -88 -27 -118 -27 -245 0 -84 5 -162 12 -185 14 -47 14 -47
-137 -240 l-103 -130 556 -3 556 -2 0 -132 0 -132 38 37 c21 20 41 37 44 37 4
0 23 -17 42 -38 l36 -37 0 133 0 132 555 0 c305 0 555 2 555 5 0 3 -56 76
-123 164 l-124 159 13 78 c50 308 -50 619 -270 840 -133 133 -313 231 -487
265 l-61 12 5 64 5 63 -144 0 -144 0 0 -65z m17 -335 c6 -107 16 -272 22 -367
6 -95 11 -190 11 -212 l0 -40 -52 6 c-33 3 -98 -3 -170 -16 -64 -12 -141 -21
-171 -21 l-54 0 -139 -182 c-168 -219 -187 -248 -180 -255 3 -4 52 -8 108 -11
84 -3 128 1 238 23 230 45 348 38 403 -23 26 -28 28 -87 5 -86 -10 0 -225 1
-478 2 l-459 2 42 59 c23 32 94 128 158 212 63 85 123 166 133 182 l18 27 -40
0 c-38 0 -44 -4 -96 -71 -68 -88 -71 -84 -70 91 1 102 6 143 27 222 69 255
230 453 462 569 95 48 223 91 255 86 12 -2 17 -37 27 -197z m418 160 c137 -46
235 -108 343 -217 117 -118 193 -249 233 -403 24 -89 37 -336 19 -360 -11 -16
-14 -14 -90 79 -32 38 -39 42 -73 39 l-38 -3 176 -234 c96 -129 174 -236 172
-237 -2 -2 -217 -4 -478 -4 l-474 0 2 26 c3 36 27 70 66 91 47 26 190 21 352
-11 175 -35 364 -34 351 1 -3 8 -76 106 -161 219 l-156 204 -55 0 c-30 0 -108
9 -172 21 -74 13 -137 19 -171 16 l-53 -6 6 87 c3 48 13 213 21 367 9 154 18
299 21 323 l5 43 37 -7 c20 -4 73 -19 117 -34z m-398 -852 c15 -6 45 -28 65
-47 l38 -35 32 31 c70 66 111 74 257 48 47 -8 115 -18 152 -21 63 -6 70 -9 98
-44 67 -84 191 -254 191 -263 0 -12 -106 -1 -223 24 -51 11 -141 22 -202 25
-97 5 -117 4 -167 -15 -33 -13 -73 -38 -96 -62 l-40 -40 -45 44 c-82 79 -192
95 -407 56 -185 -33 -261 -42 -271 -32 -5 5 39 71 102 156 106 141 112 147
147 148 21 1 87 9 147 19 137 21 186 23 222 8z"/>
</g>
</svg>
