<?xml version="1.0" standalone="no"?>
<!DOCTYPE svg PUBLIC "-//W3C//DTD SVG 20010904//EN"
 "http://www.w3.org/TR/2001/REC-SVG-20010904/DTD/svg10.dtd">
<svg version="1.0" xmlns="http://www.w3.org/2000/svg"
 width="1024.000000pt" height="1024.000000pt" viewBox="0 0 1024.000000 1024.000000"
 preserveAspectRatio="xMidYMid meet">

<g transform="translate(0.000000,1024.000000) scale(0.100000,-0.100000)"
fill="#85cdfa" stroke="none">
<path d="M4146 9711 c-27 -29 -17 -73 18 -86 25 -8 31 -6 51 17 28 32 23 61
-11 77 -33 15 -38 14 -58 -8z"/>
<path d="M5005 9716 c-103 -23 -205 -83 -205 -120 0 -7 -26 -12 -68 -13 -152
-3 -265 -95 -293 -236 -10 -49 -9 -64 5 -102 20 -51 35 -62 91 -67 37 -3 39
-1 74 57 62 104 159 195 286 271 15 8 16 14 7 29 -23 42 24 69 166 96 164 31
440 -28 394 -84 -16 -18 -4 -31 77 -87 67 -45 145 -128 203 -214 23 -34 43
-63 45 -65 6 -8 73 -1 93 9 54 29 67 142 25 226 -31 61 -63 96 -118 128 -51
29 -147 50 -192 42 -29 -6 -33 -4 -39 18 -9 35 -59 70 -136 96 -83 29 -320 37
-415 16z m-260 -206 l26 -10 -48 -36 c-26 -20 -63 -50 -80 -67 l-33 -31 -25
24 c-14 13 -25 27 -25 30 0 17 74 80 103 89 43 12 52 13 82 1z m974 -8 c19 -9
45 -31 58 -48 l24 -32 -25 -28 -24 -29 -59 56 c-32 30 -67 60 -77 66 -55 30
44 46 103 15z"/>
<path d="M6155 9695 c-54 -53 -16 -145 60 -145 26 0 43 7 60 26 53 57 16 144
-60 144 -25 0 -44 -8 -60 -25z"/>
<path d="M7300 9668 c36 -50 32 -63 -7 -18 -26 31 -29 32 -86 27 -35 -3 -66
-12 -75 -21 -15 -15 -13 -19 22 -54 54 -52 96 -143 96 -210 l0 -52 38 19 c20
10 48 31 61 45 14 14 32 26 41 26 30 0 55 39 54 84 -1 50 -35 131 -71 169 -20
20 -36 27 -65 27 l-38 0 30 -42z"/>
<path d="M3337 9600 c-169 -54 -282 -183 -308 -352 -21 -138 7 -232 106 -353
96 -117 117 -153 124 -209 l6 -51 135 -8 c74 -4 162 -6 195 -5 l60 3 8 40 c20
93 30 115 103 205 99 122 125 178 131 284 9 135 -39 250 -146 349 -110 103
-276 142 -414 97z m63 -129 c0 -12 -16 -29 -44 -45 -46 -27 -103 -102 -112
-146 -15 -77 -29 -105 -54 -105 -24 0 -25 2 -24 61 1 49 7 73 31 115 40 72
122 139 168 139 28 0 35 -4 35 -19z m88 -338 c2 -18 6 -33 8 -33 3 0 20 11 38
25 40 30 88 33 116 5 26 -26 26 -33 -14 -136 -19 -49 -44 -135 -57 -191 -19
-84 -26 -103 -41 -103 -12 0 -18 8 -18 24 0 45 31 181 63 273 17 51 28 95 25
98 -3 3 -26 -8 -50 -25 -25 -17 -62 -34 -84 -37 -33 -4 -47 0 -91 31 -49 33
-73 44 -73 31 0 -3 11 -33 25 -66 22 -55 75 -282 75 -323 0 -9 -8 -16 -20 -16
-14 0 -21 9 -26 38 -12 71 -57 227 -80 281 -28 63 -30 98 -7 123 24 27 69 22
120 -12 39 -27 44 -28 38 -10 -10 33 4 62 28 58 17 -2 23 -11 25 -35z"/>
<path d="M6870 9514 c-85 -42 -165 -80 -177 -85 -25 -9 -27 -16 -14 -38 7 -11
40 1 165 62 86 43 160 77 165 77 5 0 14 -6 20 -13 11 -14 -25 -32 -421 -221
-138 -66 -142 -67 -146 -41 -2 16 6 25 33 38 32 15 44 35 29 50 -3 3 -43 -13
-89 -35 l-83 -42 28 -35 c45 -57 80 -142 87 -215 3 -36 8 -66 10 -66 24 0 72
32 75 51 4 27 -9 20 239 133 209 96 281 137 333 188 15 15 34 28 42 28 53 0
27 123 -42 199 -28 32 -44 41 -68 41 -18 -1 -96 -32 -186 -76z m273 -131 c11
-10 -24 -43 -45 -43 -18 0 -26 29 -11 43 8 9 48 9 56 0z m-119 -39 c24 -9 19
-39 -9 -52 -21 -10 -26 -9 -35 8 -7 14 -6 23 6 34 18 18 17 18 38 10z m-79
-61 c9 -25 -32 -58 -51 -42 -20 17 -17 34 9 47 31 15 34 14 42 -5z"/>
<path d="M5088 9524 c-103 -19 -175 -47 -247 -95 -162 -108 -267 -295 -276
-490 -12 -257 158 -504 410 -598 226 -85 521 -4 671 183 58 71 99 148 124 234
19 63 22 90 17 185 -7 175 -57 285 -186 414 -139 139 -330 201 -513 167z m269
-148 c34 -15 71 -39 83 -51 l22 -24 -43 -51 c-35 -41 -41 -54 -32 -68 18 -30
37 -23 77 29 31 40 41 47 52 38 19 -16 18 -25 -12 -64 l-25 -33 30 -60 c17
-33 33 -79 37 -101 l6 -40 -41 -7 c-38 -6 -42 -9 -39 -33 3 -23 8 -26 46 -29
23 -2 42 -5 42 -7 0 -51 -54 -198 -85 -228 -17 -18 -19 -17 -46 9 -29 28 -54
27 -65 -1 -6 -14 35 -79 60 -98 15 -10 -35 -50 -104 -85 -50 -25 -64 -27 -165
-26 -89 0 -121 5 -165 23 -128 51 -228 153 -281 288 -28 69 -32 208 -10 288
44 156 152 275 303 336 67 27 82 29 183 27 97 -3 118 -7 172 -32z"/>
<path d="M5149 9188 c-1 -84 -1 -160 0 -169 1 -9 -8 -35 -19 -57 -32 -62 -10
-112 49 -112 50 0 78 71 46 114 -12 16 -15 57 -15 198 l0 178 -30 0 -30 0 -1
-152z"/>
<path d="M4860 9211 c-8 -16 -4 -24 29 -50 37 -29 39 -30 55 -13 15 17 14 20
-17 50 -38 37 -52 40 -67 13z"/>
<path d="M4747 8933 c-2 -5 -1 -17 2 -28 5 -17 15 -20 59 -20 41 0 53 4 58 17
3 10 2 22 -1 28 -7 12 -112 14 -118 3z"/>
<path d="M4901 8648 c-37 -38 -37 -39 -9 -57 20 -13 24 -11 54 25 24 28 30 42
22 51 -16 20 -33 16 -67 -19z"/>
<path d="M5154 8586 c-3 -8 -4 -31 -2 -52 2 -31 7 -40 25 -42 19 -3 23 3 28
42 4 24 4 49 0 55 -9 16 -45 13 -51 -3z"/>
<path d="M7563 9364 c-21 -32 -8 -58 31 -62 53 -6 76 43 34 72 -31 22 -45 20
-65 -10z"/>
<path d="M1719 9119 c-173 -116 -334 -227 -358 -247 -56 -45 -81 -87 -81 -136
0 -51 96 -263 129 -284 17 -11 48 -16 106 -16 76 0 90 3 157 37 40 20 79 40
86 45 10 7 5 27 -23 91 -19 46 -35 84 -35 86 0 3 37 26 83 53 76 46 331 200
695 421 83 51 152 99 152 105 0 7 -6 21 -14 31 -13 18 -18 16 -107 -38 -52
-31 -106 -64 -121 -74 -25 -16 -28 -16 -87 11 l-60 27 -50 -26 c-28 -14 -54
-25 -58 -25 -5 0 -25 34 -46 75 -20 41 -41 75 -45 75 -5 0 -150 -95 -323 -211z
m305 85 c4 -9 5 -18 4 -19 -2 -2 -79 -53 -173 -116 -368 -244 -445 -300 -445
-324 0 -32 33 -38 94 -17 28 10 139 71 246 136 482 293 455 279 484 264 25
-13 24 -14 -72 -71 -53 -32 -194 -117 -312 -189 -314 -191 -354 -208 -431
-188 -62 17 -79 77 -34 120 34 32 607 419 621 420 7 0 15 -7 18 -16z"/>
<path d="M7765 9184 c-93 -42 -282 -125 -420 -186 -389 -172 -449 -202 -474
-234 -79 -101 -80 -281 -1 -377 45 -54 87 -79 355 -217 132 -68 291 -150 353
-182 138 -70 161 -72 261 -22 81 41 113 79 131 157 13 62 5 105 -31 162 -28
43 -28 45 -9 55 29 16 582 267 669 304 l73 31 34 -39 c48 -55 62 -125 40 -200
-10 -32 -16 -59 -14 -61 9 -9 107 50 134 80 76 86 71 236 -11 333 -26 29 -81
64 -212 134 -307 163 -662 338 -686 338 -12 0 -98 -35 -192 -76z m363 -64 c39
-17 52 -28 52 -44 0 -17 2 -18 10 -6 9 13 10 13 10 0 0 -13 1 -13 11 0 8 11 9
4 6 -30 l-5 -45 13 40 c7 22 14 32 14 22 1 -10 6 -15 11 -12 15 9 12 -15 -11
-84 -14 -42 -24 -59 -30 -50 -5 9 -10 4 -15 -17 l-7 -29 -14 30 -13 30 2 -30
c2 -22 -1 -30 -15 -31 -9 -1 -11 0 -4 2 9 3 12 14 9 30 -4 22 -8 24 -38 18
-27 -5 -34 -3 -34 10 0 9 4 16 8 16 5 0 9 6 9 13 0 21 -35 18 -40 -4 -3 -10
-1 -17 4 -13 5 3 9 -2 9 -10 0 -9 -6 -13 -14 -10 -17 7 -27 -30 -12 -47 8 -9
7 -10 -7 -6 -11 4 -16 3 -12 -3 3 -6 1 -10 -4 -10 -6 0 -11 4 -11 9 0 4 -11 6
-25 3 -18 -3 -24 0 -22 9 2 8 2 11 0 7 -3 -5 -14 -9 -26 -9 -16 -1 -18 -2 -5
-6 17 -4 14 -33 -4 -33 -5 0 -7 4 -4 9 4 5 -4 6 -16 3 -19 -5 -20 -7 -5 -10 9
-2 17 -11 17 -20 0 -14 -2 -15 -10 -2 -15 24 -19 7 -5 -20 9 -15 14 -19 15
-10 0 13 1 13 11 0 8 -12 9 -9 5 13 -4 15 -2 27 4 27 5 0 10 7 10 15 0 10 9
15 28 14 23 -2 24 -2 5 -6 -13 -2 -23 -8 -23 -13 0 -4 9 -6 20 -3 15 4 20 0
20 -13 0 -16 -2 -17 -10 -4 -8 12 -11 13 -19 1 -5 -7 -6 -23 -3 -34 5 -20 6
-20 13 -1 7 19 8 19 8 -1 0 -11 -4 -29 -9 -40 l-9 -20 -1 20 -1 20 -9 -20 c-7
-15 -8 -9 -5 20 2 22 2 32 -1 23 -3 -10 -12 -18 -20 -18 -8 0 -14 -8 -14 -17
0 -16 2 -16 11 -3 7 10 9 11 7 2 -2 -8 -7 -13 -12 -12 -5 1 -13 -4 -17 -12 -7
-10 -9 -10 -9 0 0 6 -7 12 -15 12 -8 0 -15 7 -15 15 0 8 -7 15 -15 15 -8 0
-15 -6 -15 -14 0 -7 -11 -16 -25 -18 -19 -4 -25 -1 -25 13 0 11 -4 19 -10 19
-5 0 -10 8 -11 18 -1 11 -4 8 -8 -8 -9 -29 -2 -48 10 -29 6 10 9 10 9 2 0 -17
-13 -23 -38 -16 -12 3 -22 13 -23 22 -1 27 -18 -20 -17 -49 0 -23 1 -22 8 5
l8 30 1 -32 c1 -35 -1 -36 -36 -27 -14 4 -20 11 -16 21 5 12 7 12 14 1 6 -9 9
-8 9 7 0 11 -5 27 -11 35 -10 13 -10 13 -6 -1 3 -9 -1 -16 -9 -16 -7 0 -11 4
-8 8 2 5 1 20 -2 36 -7 25 -8 25 -15 8 -11 -28 -10 -43 1 -25 6 9 10 10 10 3
0 -25 -13 -43 -32 -43 -12 0 -17 4 -12 12 4 6 3 8 -4 4 -5 -3 -12 -1 -14 6 -3
8 -7 6 -11 -5 -4 -11 -1 -17 8 -17 8 0 15 -7 15 -15 0 -8 -4 -15 -10 -15 -5 0
-10 -4 -10 -10 0 -5 7 -7 15 -4 11 5 14 1 9 -12 -3 -11 -2 -15 3 -8 10 13 55
26 47 13 -3 -5 2 -9 11 -9 9 0 14 4 11 9 -4 5 2 7 11 5 10 -3 23 -16 29 -29
10 -21 10 -23 -7 -12 -10 6 -15 15 -13 19 3 4 2 8 -3 8 -13 0 -30 -14 -36 -30
-4 -10 -6 -8 -6 8 -1 12 -7 22 -15 22 -18 0 -29 -27 -14 -36 7 -4 8 -3 4 4 -4
7 -2 12 4 12 7 0 10 -6 7 -12 -2 -7 -12 -12 -22 -11 -13 1 -16 -5 -12 -23 2
-13 1 -21 -4 -19 -4 3 -9 0 -11 -7 -3 -8 -7 -6 -11 5 -3 9 -2 17 3 17 6 0 10
7 10 15 0 8 -5 15 -11 15 -5 0 -7 -6 -3 -12 6 -10 4 -10 -7 -2 -8 7 -23 8 -34
4 -27 -10 -45 -2 -45 20 0 19 27 35 32 19 2 -5 4 9 4 33 l1 43 -12 -35 c-10
-29 -13 -32 -17 -15 -5 18 -6 18 -7 -3 0 -12 -6 -21 -12 -20 -7 2 -15 -9 -20
-25 -4 -16 -4 -25 2 -21 5 3 9 -3 10 -13 0 -16 1 -16 9 2 8 19 9 19 9 -2 1
-14 -5 -23 -14 -23 -8 0 -15 5 -15 10 0 6 -4 10 -10 10 -5 0 -6 -8 -3 -17 6
-15 5 -16 -9 -3 -9 8 -12 17 -8 20 5 3 11 19 14 35 3 17 3 24 0 18 -9 -20 -24
-15 -17 5 3 9 3 14 -1 11 -11 -10 -16 -50 -5 -44 5 4 9 1 9 -4 0 -6 -4 -11
-10 -11 -5 0 -10 -8 -10 -17 0 -15 -2 -16 -10 -3 -8 12 -10 12 -10 1 0 -11 -3
-11 -15 -1 -8 7 -15 20 -14 29 0 12 2 11 9 -4 8 -19 9 -19 9 3 1 26 -14 29
-27 6 -7 -13 -13 -14 -31 -5 -11 7 -21 19 -21 29 0 13 -2 14 -9 3 -7 -11 -28
-4 -105 32 -53 25 -96 49 -96 54 0 4 26 19 58 32 31 13 118 51 192 84 74 33
205 90 290 128 85 37 216 95 290 128 74 33 140 58 145 56 6 -2 34 -13 63 -25z
m164 -89 c-5 -3 -12 -19 -15 -36 l-6 -30 14 30 c19 40 19 17 0 -26 -10 -24
-14 -28 -15 -14 0 17 -2 18 -11 5 -9 -12 -10 -11 -4 5 9 26 13 46 14 67 1 12
6 15 17 11 9 -3 11 -9 6 -12z m42 -54 c7 -6 4 -7 -6 -3 -12 3 -18 0 -18 -9 0
-8 -4 -15 -9 -15 -6 0 -5 13 1 32 7 21 13 27 16 18 3 -8 10 -19 16 -23z m23
-14 c-3 -10 -5 -4 -5 12 0 17 2 24 5 18 2 -7 2 -21 0 -30z m-113 -50 l-6 -28
17 23 c9 12 20 20 25 17 4 -3 11 0 13 5 3 6 4 5 3 -2 -2 -7 -9 -12 -15 -10 -7
1 -18 -12 -26 -30 -11 -25 -14 -28 -15 -13 l-1 20 -9 -20 c-13 -29 -12 -3 1
34 14 38 22 41 13 4z m123 13 c4 -4 4 -7 -2 -6 -19 4 -36 0 -31 -8 2 -4 -4 -8
-14 -8 -18 0 -18 1 -2 17 18 17 36 19 49 5z m-307 -31 c0 -8 -4 -15 -10 -15
-5 0 -7 7 -4 15 4 8 8 15 10 15 2 0 4 -7 4 -15z m29 -8 c3 6 17 13 31 17 14 4
20 4 15 -1 -6 -4 -16 -20 -22 -35 -10 -22 -10 -28 0 -28 8 0 7 -4 -3 -10 -9
-6 -17 -5 -22 3 -5 8 -8 6 -8 -5 0 -10 -7 -18 -15 -18 -8 0 -15 8 -16 18 0 15
-2 14 -10 -3 l-9 -20 3 20 c1 13 11 21 27 23 29 4 50 20 50 36 0 6 -5 3 -11
-8 -9 -15 -13 -16 -20 -5 -5 8 -8 21 -8 29 1 9 3 8 6 -4 3 -10 8 -14 12 -9z
m201 -2 c0 -8 -2 -15 -4 -15 -2 0 -6 7 -10 15 -3 8 -1 15 4 15 6 0 10 -7 10
-15z m-82 -26 c-1 -17 -4 -25 -8 -18 -7 10 -2 49 5 49 2 0 3 -14 3 -31z m62
-3 c0 -2 -8 -10 -17 -17 -16 -13 -17 -12 -4 4 13 16 21 21 21 13z m-120 -17
c0 8 2 12 5 9 3 -3 1 -16 -4 -29 -5 -13 -10 -19 -10 -12 -1 6 -4 20 -7 30 -5
15 -4 15 5 3 9 -12 11 -13 11 -1z m23 -24 c-3 -9 -8 -14 -10 -11 -3 3 -2 9 2
15 9 16 15 13 8 -4z m-60 -18 c3 -8 -1 -14 -8 -14 -7 0 -11 6 -8 14 3 7 6 13
8 13 2 0 5 -6 8 -13z m-53 -12 c0 -8 -4 -15 -10 -15 -5 0 -7 7 -4 15 4 8 8 15
10 15 2 0 4 -7 4 -15z m-30 -30 c0 -8 -4 -15 -10 -15 -5 0 -7 7 -4 15 4 8 8
15 10 15 2 0 4 -7 4 -15z m73 8 c-7 -2 -13 -12 -13 -20 0 -9 -3 -14 -6 -10
-10 10 4 37 18 36 10 0 10 -2 1 -6z m-36 -25 c-3 -8 -6 -5 -6 6 -1 11 2 17 5
13 3 -3 4 -12 1 -19z m-309 -46 c2 -13 -3 -25 -12 -28 -22 -8 -20 -25 2 -18
14 5 15 4 2 -5 -23 -16 -40 7 -17 23 9 7 17 22 16 32 0 18 -1 18 -9 -1 -8 -19
-9 -19 -9 3 -1 30 23 24 27 -6z m94 9 c15 -18 15 -19 -3 -24 -10 -3 -17 -1
-13 4 3 5 -3 10 -13 10 -17 1 -17 2 0 6 9 2 15 9 12 14 -10 16 0 10 17 -10z
m-228 -13 c-5 -8 -2 -9 10 -5 10 4 15 3 11 -3 -10 -15 -35 -12 -35 5 0 8 5 15
11 15 5 0 7 -5 3 -12z m286 8 c0 -2 -7 -7 -16 -10 -8 -3 -12 -2 -9 4 6 10 25
14 25 6z m130 -11 c0 -7 -30 -13 -34 -7 -3 4 4 9 15 9 10 1 19 0 19 -2z m-922
-73 c70 -38 186 -99 258 -135 267 -134 330 -170 366 -205 48 -46 73 -108 63
-158 -8 -43 -54 -94 -85 -94 -12 0 -114 49 -228 108 -114 59 -269 139 -345
178 -85 42 -154 84 -178 108 -48 47 -70 114 -59 175 8 44 43 91 68 91 8 0 71
-31 140 -68z m679 42 c-3 -3 -12 -4 -19 -1 -8 3 -5 6 6 6 11 1 17 -2 13 -5z
m47 -2 c3 -5 -1 -9 -9 -9 -8 0 -12 4 -9 9 3 4 7 8 9 8 2 0 6 -4 9 -8z m-367
-44 c-3 -7 -5 -2 -5 12 0 14 2 19 5 13 2 -7 2 -19 0 -25z m310 10 c-3 -8 -6
-5 -6 6 -1 11 2 17 5 13 3 -3 4 -12 1 -19z m-110 -26 c-1 -35 -2 -37 -19 -23
-17 15 -15 37 3 26 5 -4 9 3 9 14 0 12 2 21 4 21 3 0 4 -17 3 -38z m65 -9 c-3
-16 -7 -22 -10 -15 -4 13 4 42 11 42 2 0 2 -12 -1 -27z m-22 7 c0 -5 -8 -10
-17 -10 -15 0 -16 2 -3 10 19 12 20 12 20 0z m-215 -29 c-4 -13 -15 -21 -28
-20 l-22 0 23 9 c12 5 22 17 22 26 0 10 3 15 6 11 3 -3 3 -15 -1 -26z m58 10
c3 -13 1 -18 -9 -14 -7 2 -10 11 -7 19 7 19 10 18 16 -5z m-36 -63 c-3 -8 -6
-5 -6 6 -1 11 2 17 5 13 3 -3 4 -12 1 -19z m148 12 c3 -6 -1 -7 -9 -4 -18 7
-21 14 -7 14 6 0 13 -4 16 -10z m-128 -22 c-3 -8 -6 -5 -6 6 -1 11 2 17 5 13
3 -3 4 -12 1 -19z"/>
<path d="M8171 9028 c-1 -10 4 -18 9 -18 6 0 10 -4 10 -10 0 -5 -5 -9 -11 -7
-6 1 -14 -5 -16 -13 -4 -13 -3 -13 7 0 8 12 9 9 4 -12 -3 -15 -2 -37 2 -50 6
-21 8 -20 20 15 13 38 9 101 -6 92 -5 -3 -11 1 -13 7 -3 8 -6 6 -6 -4z m26
-60 c-3 -8 -6 -5 -6 6 -1 11 2 17 5 13 3 -3 4 -12 1 -19z"/>
<path d="M8111 9025 c1 -19 18 -51 18 -35 0 8 -4 22 -9 30 -5 8 -9 11 -9 5z"/>
<path d="M8233 9013 c-3 -10 -8 -21 -10 -25 -2 -5 0 -8 5 -8 5 0 12 11 14 25
6 29 0 33 -9 8z"/>
<path d="M8140 8983 c0 -7 -7 -13 -15 -13 -9 0 -15 -9 -15 -25 0 -31 29 -23
31 9 1 16 3 14 9 -9 7 -28 8 -28 9 -5 0 14 -4 32 -9 40 -6 10 -10 11 -10 3z"/>
<path d="M8006 8949 c9 -10 21 -16 25 -13 13 8 11 14 -3 12 -7 -2 -12 2 -11 8
1 6 -5 11 -13 11 -12 0 -11 -4 2 -18z"/>
<path d="M7956 8947 c3 -10 9 -15 12 -12 3 3 0 11 -7 18 -10 9 -11 8 -5 -6z"/>
<path d="M7988 8923 c-22 -5 -24 -20 -3 -20 8 0 15 5 15 11 0 6 5 4 10 -4 6
-9 10 -10 10 -3 0 15 -11 20 -32 16z"/>
<path d="M7896 8912 c-3 -5 1 -9 9 -9 8 0 12 4 9 9 -3 4 -7 8 -9 8 -2 0 -6 -4
-9 -8z"/>
<path d="M7886 8878 c3 -4 -2 -8 -10 -8 -15 0 -32 -37 -22 -47 3 -4 6 0 6 8 0
12 2 11 11 -1 8 -12 9 -10 4 8 -6 21 -4 23 17 18 12 -3 17 -3 10 0 -9 4 -10
10 -3 18 8 9 7 13 -4 13 -8 0 -12 -4 -9 -9z"/>
<path d="M7821 8864 c0 -11 3 -14 6 -6 3 7 2 16 -1 19 -3 4 -6 -2 -5 -13z"/>
<path d="M7758 8863 c7 -3 16 -2 19 1 4 3 -2 6 -13 5 -11 0 -14 -3 -6 -6z"/>
<path d="M7824 8827 c-6 -7 -8 -19 -6 -26 3 -8 0 -11 -5 -8 -5 3 -15 2 -23 -4
-13 -7 -13 -9 0 -9 27 0 60 12 60 22 0 5 -5 6 -11 2 -8 -4 -9 0 -4 15 7 24 5
26 -11 8z"/>
<path d="M7771 8815 c-18 -10 -31 -11 -45 -4 -18 9 -19 8 -5 -3 9 -7 18 -20
22 -28 4 -12 6 -11 6 3 1 11 9 17 24 17 14 0 24 6 24 15 0 8 -1 15 -1 14 -1
-1 -12 -7 -25 -14z"/>
<path d="M7860 8799 c0 -5 -13 -15 -30 -20 -17 -6 -30 -18 -30 -27 0 -14 2
-14 9 -3 7 11 9 11 14 0 4 -10 6 -9 6 4 1 9 7 17 15 17 8 0 17 7 20 16 6 17
26 10 26 -9 0 -7 -4 -6 -10 3 -9 13 -10 13 -10 0 0 -8 5 -22 10 -30 9 -13 10
-13 10 0 0 13 1 13 10 0 14 -21 13 3 -2 35 -11 25 -38 35 -38 14z"/>
<path d="M7696 8775 c-3 -9 -6 -22 -5 -28 0 -7 5 -1 10 12 5 13 8 26 5 28 -2
2 -6 -3 -10 -12z"/>
<path d="M7501 8704 c0 -11 3 -14 6 -6 3 7 2 16 -1 19 -3 4 -6 -2 -5 -13z"/>
<path d="M7454 8694 c9 -8 16 -20 16 -26 0 -6 3 -9 6 -6 8 9 -14 48 -27 48 -6
0 -3 -7 5 -16z"/>
<path d="M7430 8672 c-13 -14 -12 -15 3 -9 10 4 17 2 17 -5 0 -6 3 -9 6 -5 3
3 2 12 -3 20 -7 13 -10 13 -23 -1z"/>
<path d="M7537 8675 c-4 -8 -2 -15 2 -15 5 0 11 6 14 13 3 6 4 2 4 -10 -1 -12
-5 -19 -9 -17 -13 8 -9 -6 6 -22 10 -9 17 -10 21 -4 4 6 12 7 18 3 6 -4 2 8
-10 27 -25 40 -38 47 -46 25z"/>
<path d="M7375 8649 c-4 -6 -5 -12 -2 -15 2 -3 7 2 10 11 7 17 1 20 -8 4z"/>
<path d="M7342 8630 c-18 -29 -15 -38 4 -12 9 13 14 25 12 27 -2 2 -9 -5 -16
-15z"/>
<path d="M7070 8537 c0 -16 10 -27 33 -38 50 -23 504 -257 575 -296 56 -31 62
-33 62 -15 0 10 -8 26 -17 34 -16 14 -638 338 -649 338 -2 0 -4 -10 -4 -23z"/>
<path d="M7063 8434 c-8 -23 5 -31 182 -121 83 -41 223 -113 312 -160 90 -46
167 -82 173 -78 35 22 -1 45 -326 208 -285 144 -335 166 -341 151z"/>
<path d="M6250 9213 l-32 -26 30 -13 c54 -22 56 -44 9 -93 -39 -42 -42 -43
-72 -32 -17 6 -34 11 -38 11 -9 0 -117 -137 -117 -148 0 -17 53 -20 175 -11
179 14 199 22 211 85 14 74 -46 208 -107 239 -26 14 -30 13 -59 -12z"/>
<path d="M2585 9184 c-27 -19 -226 -141 -441 -270 l-392 -236 43 -96 c23 -54
62 -137 85 -187 94 -202 165 -355 300 -650 78 -170 180 -392 226 -492 46 -101
84 -190 84 -198 0 -8 2 -15 4 -15 2 0 78 46 168 101 89 56 195 121 233 144
106 63 268 164 386 241 l107 69 -24 47 -24 47 -87 -55 c-303 -191 -695 -424
-703 -419 -26 16 -7 43 58 80 37 21 101 60 142 85 41 26 129 80 195 120 66 40
173 106 238 146 65 41 122 74 128 74 5 0 9 3 9 6 0 5 -20 45 -26 53 -3 4 -119
-66 -352 -212 -114 -72 -146 -87 -153 -76 -5 8 -9 19 -9 24 0 10 96 71 367
236 67 41 123 78 123 83 0 4 -24 60 -54 125 -30 64 -143 316 -251 561 -294
666 -309 700 -320 699 -5 0 -32 -16 -60 -35z m59 -651 c-51 -38 -386 -233
-392 -229 -4 2 -21 32 -37 67 -26 53 -28 63 -15 71 84 50 204 122 290 173
l105 62 34 -65 c32 -63 32 -66 15 -79z m93 -167 l42 -84 -190 -117 c-104 -63
-195 -118 -202 -121 -8 -3 -28 27 -54 80 l-42 85 197 120 c108 66 199 120 202
120 3 1 24 -37 47 -83z"/>
<path d="M4483 8773 c-15 -3 -23 -12 -23 -24 0 -36 41 -143 80 -209 39 -66
142 -176 199 -212 40 -26 39 -34 -6 -36 -120 -5 -192 -97 -159 -206 24 -76 60
-146 78 -146 54 0 57 16 27 125 -19 71 -19 78 -5 101 9 13 22 24 29 25 98 7
125 12 152 28 32 18 33 18 101 -5 38 -13 92 -26 120 -30 l51 -6 9 -81 9 -82
35 3 c19 2 36 5 38 7 1 1 5 27 8 56 10 100 7 96 80 108 36 7 90 21 120 32 52
20 56 20 74 4 13 -12 46 -20 97 -25 107 -11 117 -25 87 -139 -8 -34 -14 -74
-12 -89 2 -22 8 -27 32 -27 26 0 32 7 63 75 55 122 37 210 -51 254 -21 10 -55
18 -77 18 -46 -1 -58 12 -27 29 43 23 119 94 165 154 52 68 119 202 128 256 6
34 5 36 -25 43 -52 10 -56 8 -70 -36 -29 -100 -117 -233 -200 -305 -58 -50
-171 -113 -245 -136 -99 -31 -292 -30 -379 1 -204 75 -382 256 -428 435 -12
49 -17 51 -75 40z"/>
<path d="M4068 8723 c-10 -2 -18 -9 -18 -14 0 -5 21 -54 46 -109 44 -93 48
-99 68 -88 11 6 23 12 25 14 7 6 -84 204 -94 203 -5 -1 -18 -3 -27 -6z"/>
<path d="M6289 8567 c-24 -50 -45 -94 -47 -98 -2 -4 7 -13 19 -19 29 -16 37
-6 87 102 l40 87 -28 9 c-27 10 -28 9 -71 -81z"/>
<path d="M8531 8599 c-47 -22 -87 -41 -89 -44 -2 -2 8 -29 23 -59 31 -63 35
-136 12 -203 l-14 -40 100 46 c96 44 101 48 124 96 32 70 31 144 -2 202 -32
54 -45 54 -154 2z"/>
<path d="M3280 8570 l0 -30 190 0 190 0 0 30 0 30 -190 0 -190 0 0 -30z"/>
<path d="M8172 8436 c-111 -51 -205 -95 -208 -99 -3 -3 4 -18 15 -34 12 -15
26 -53 33 -85 10 -47 9 -66 -4 -113 -12 -44 -13 -55 -3 -51 39 15 174 73 275
119 114 51 115 53 143 106 31 62 35 122 12 178 -16 37 -43 73 -54 72 -3 0 -97
-42 -209 -93z"/>
<path d="M3270 8481 c0 -21 6 -30 23 -35 29 -8 281 -8 330 0 33 6 37 10 37 35
l0 29 -195 0 -195 0 0 -29z"/>
<path d="M1752 8465 c-77 -55 -214 -86 -287 -66 -21 6 -40 9 -41 8 -1 -1 5
-19 14 -41 l15 -39 81 6 c87 5 171 30 242 72 l44 26 -15 29 c-9 17 -17 30 -18
29 -1 0 -17 -11 -35 -24z"/>
<path d="M3443 8423 c-90 -2 -163 -7 -163 -11 1 -19 40 -53 83 -71 58 -25 115
-27 187 -5 79 24 142 98 77 92 -12 -1 -95 -4 -184 -5z"/>
<path d="M1820 8382 c0 -5 -18 -17 -40 -27 -33 -15 -38 -21 -30 -36 13 -23 13
-29 -1 -29 -5 0 -8 4 -5 9 3 5 -1 14 -8 20 -12 10 -14 9 -10 -6 3 -10 -2 -38
-10 -63 -8 -25 -14 -37 -15 -27 -1 10 -5 16 -11 12 -14 -9 0 -37 16 -31 8 3
14 0 14 -7 0 -8 4 -7 11 3 8 11 9 6 4 -20 -5 -26 -4 -31 4 -20 7 10 11 11 11
3 0 -7 7 -10 18 -7 10 4 13 3 6 -3 -9 -6 -8 -11 2 -21 9 -8 14 -9 14 -2 0 6 4
9 9 6 5 -4 12 0 14 6 4 10 6 10 6 0 1 -8 6 -10 14 -6 6 4 9 4 5 0 -3 -4 -10
-8 -15 -8 -4 0 -16 -4 -26 -10 -14 -7 -22 -4 -36 13 l-18 22 -21 -21 c-11 -11
-24 -17 -28 -14 -4 4 -4 1 0 -5 4 -8 2 -13 -5 -13 -7 0 -9 -3 -6 -6 4 -4 13
-1 21 6 13 10 15 7 12 -18 -4 -25 -1 -29 15 -25 14 4 19 0 19 -14 0 -10 6 -25
13 -32 10 -11 10 -13 0 -7 -7 4 -13 2 -13 -3 0 -6 6 -11 14 -11 8 0 17 -4 20
-8 2 -4 -12 -7 -32 -5 -20 1 -29 0 -19 -3 9 -3 17 -11 17 -17 0 -7 4 -6 10 3
8 13 10 12 10 -2 0 -11 -7 -18 -17 -18 -15 0 -15 -2 -4 -9 19 -12 51 8 52 34
0 20 0 20 8 0 5 -11 4 -22 0 -23 -5 -2 -7 -8 -4 -13 4 -5 -1 -6 -9 -3 -11 4
-13 0 -9 -16 4 -13 0 -26 -8 -31 -10 -6 -6 -9 14 -9 27 0 38 23 17 33 -6 3 -5
4 2 3 23 -5 14 -40 -12 -47 -18 -5 -20 -7 -6 -8 13 -1 17 -6 13 -21 -4 -14 0
-20 11 -20 15 0 15 -2 2 -10 -12 -8 -12 -10 -1 -10 8 0 11 -3 7 -7 -11 -12
-36 27 -29 45 4 9 2 13 -4 9 -12 -7 -39 50 -35 72 2 7 -1 10 -8 6 -13 -8 -44
61 -34 77 4 7 3 8 -4 4 -14 -8 -46 50 -36 66 4 6 3 8 -3 5 -5 -3 -34 44 -63
104 -30 61 -58 112 -64 114 -6 2 -26 6 -43 9 l-32 5 18 -47 c10 -26 74 -159
141 -297 67 -137 160 -330 207 -427 61 -127 92 -180 107 -184 12 -4 57 -7 101
-7 71 0 90 5 158 36 42 20 77 41 77 47 0 11 -24 65 -160 360 -32 69 -94 204
-138 300 -106 235 -144 310 -154 310 -4 0 -8 -4 -8 -8z m-4 -99 c-3 -4 -6 0
-7 8 0 8 -4 6 -9 -6 -6 -16 -8 -14 -7 13 0 31 1 31 15 11 8 -11 11 -23 8 -26z
m-39 -5 c-3 -8 -6 -5 -6 6 -1 11 2 17 5 13 3 -3 4 -12 1 -19z m1 -23 c11 2 19
-3 19 -11 0 -11 -3 -11 -14 -2 -12 9 -13 7 -8 -15 4 -14 3 -33 -3 -42 -7 -14
-11 -12 -22 15 -10 24 -15 28 -22 18 -7 -9 -8 -5 -4 12 3 14 6 31 6 38 0 10 4
10 15 -2 8 -8 23 -13 33 -11z m39 -17 c-3 -8 -6 -5 -6 6 -1 11 2 17 5 13 3 -3
4 -12 1 -19z m19 -37 c0 -19 -4 -27 -10 -23 -6 4 -14 7 -18 7 -3 0 -10 3 -14
7 -3 4 3 5 16 3 15 -3 20 0 17 9 -5 11 0 26 8 26 1 0 1 -13 1 -29z m-95 -91
c6 0 7 5 3 12 -4 7 -3 8 5 4 6 -4 9 -12 6 -17 -4 -5 -1 -9 4 -9 6 0 11 -7 11
-15 0 -8 7 -15 16 -15 11 0 14 -5 10 -16 -4 -9 -1 -24 6 -33 11 -14 11 -14 -2
-4 -8 6 -19 11 -24 12 -8 0 -57 88 -55 100 0 3 3 0 6 -6 2 -7 9 -13 14 -13z
m135 -50 c0 -19 -4 -26 -13 -23 -15 6 -17 19 -3 28 6 3 10 11 10 16 0 6 -5 7
-12 3 -7 -5 -8 -3 -4 5 11 17 21 4 22 -29z m-54 -8 c-7 -2 -9 -9 -6 -14 4 -7
2 -8 -4 -4 -6 4 -9 13 -6 21 4 8 11 12 17 8 8 -5 7 -8 -1 -11z m18 -58 c0 -8
-19 -13 -24 -6 -3 5 1 9 9 9 8 0 15 -2 15 -3z m-13 -166 c-3 -8 -6 -5 -6 6 -1
11 2 17 5 13 3 -3 4 -12 1 -19z"/>
<path d="M1750 8223 c0 -4 5 -15 10 -23 8 -13 10 -13 10 2 0 9 -4 20 -10 23
-5 3 -10 3 -10 -2z"/>
<path d="M1670 8301 c0 -5 3 -17 6 -26 5 -13 8 -14 15 -3 7 10 9 8 9 -6 0 -11
2 -17 5 -14 11 10 -7 58 -21 58 -8 0 -14 -4 -14 -9z"/>
<path d="M1651 8284 c0 -11 3 -14 6 -6 3 7 2 16 -1 19 -3 4 -6 -2 -5 -13z"/>
<path d="M6538 8214 c-10 -19 -18 -53 -18 -74 l0 -40 -55 0 c-43 0 -56 -4 -65
-19 -13 -25 -13 -27 6 -45 10 -10 33 -16 65 -16 l49 0 0 -49 c0 -54 27 -100
49 -86 18 11 41 69 41 104 0 30 1 31 46 29 38 -2 50 2 65 21 18 22 18 25 3 42
-12 14 -31 19 -66 19 -45 0 -48 2 -48 26 0 27 -38 124 -49 124 -3 0 -14 -16
-23 -36z"/>
<path d="M3699 8149 c-17 -17 -20 -28 -14 -57 3 -21 7 -66 8 -102 2 -58 5 -65
28 -79 24 -13 29 -13 53 2 19 13 26 26 26 48 0 30 1 31 36 25 47 -9 84 14 84
52 0 40 -17 52 -72 52 -44 0 -48 2 -48 23 0 52 -63 74 -101 36z"/>
<path d="M4207 8128 c-15 -12 -12 -22 30 -110 44 -93 46 -96 69 -86 13 6 24
15 24 19 0 21 -84 189 -95 189 -6 0 -19 -6 -28 -12z"/>
<path d="M6086 8044 c-26 -54 -45 -98 -44 -99 2 -1 13 -8 26 -14 21 -11 24 -8
67 80 50 102 52 114 29 123 -28 11 -32 7 -78 -90z"/>
<path d="M3386 8104 c-22 -21 -20 -47 5 -70 23 -20 42 -14 66 23 13 19 12 24
-6 42 -25 25 -44 27 -65 5z"/>
<path d="M8815 8065 c-116 -51 -505 -217 -765 -325 -177 -73 -202 -87 -225
-118 -19 -26 -20 -43 -20 -564 0 -529 0 -537 21 -565 31 -42 391 -223 444
-223 7 0 10 177 10 544 l0 543 103 46 c56 25 147 64 202 85 55 22 127 52 160
67 33 15 161 70 285 121 124 52 244 103 268 114 53 25 52 25 52 -2 0 -24 -25
-35 -775 -351 -110 -47 -212 -90 -227 -97 l-28 -13 0 -527 0 -528 103 43 c342
142 950 399 994 420 93 44 88 9 88 581 0 546 3 519 -58 551 -27 13 -32 13 -63
-3 -33 -18 -34 -18 -61 2 -16 11 -32 35 -38 52 -11 37 -15 38 -71 16 -42 -16
-43 -16 -103 16 -59 32 -81 61 -81 111 0 26 -40 59 -69 58 -14 -1 -80 -25
-146 -54z m108 -124 c5 -21 20 -14 -358 -179 -88 -38 -225 -97 -305 -130 -80
-33 -175 -74 -213 -91 l-67 -30 0 -321 0 -320 30 0 30 0 0 313 1 312 187 79
c103 43 323 137 489 208 253 108 305 127 323 118 11 -6 20 -14 20 -19 0 -8
-172 -89 -335 -156 -49 -21 -128 -54 -175 -75 -47 -21 -152 -66 -235 -100 -82
-34 -162 -70 -177 -78 -29 -17 -38 -42 -15 -42 16 0 133 46 257 100 52 23 120
52 150 65 60 25 241 101 476 201 83 35 158 64 167 64 9 0 21 -8 26 -18 9 -17
2 -22 -52 -44 -34 -14 -257 -110 -495 -212 -239 -102 -438 -186 -443 -186 -5
0 -9 -209 -9 -505 0 -278 -2 -505 -5 -505 -2 0 -24 11 -47 24 l-43 24 -6 153
c-3 85 -10 167 -14 183 l-8 30 -13 -45 c-8 -26 -14 -94 -14 -166 0 -68 -3
-123 -6 -123 -3 0 -37 17 -75 38 l-69 37 0 486 0 486 23 20 c29 27 56 40 207
101 69 28 184 76 255 107 72 32 166 72 210 90 44 19 125 54 180 78 113 51 140
56 148 28z m92 -764 c60 -60 56 -158 -9 -223 -43 -43 -93 -52 -143 -28 -78 39
-104 124 -63 205 27 52 72 79 134 79 41 0 53 -5 81 -33z"/>
<path d="M1724 8042 c-9 -5 -8 -10 1 -19 11 -10 13 -9 12 7 -1 11 -1 20 -2 20
0 0 -5 -4 -11 -8z"/>
<path d="M5150 7874 l0 -105 33 3 32 3 3 103 3 102 -36 0 -35 0 0 -106z"/>
<path d="M7040 7916 c-29 -88 -75 -145 -148 -184 -33 -18 -67 -32 -76 -32 -21
0 -20 -19 2 -26 122 -39 190 -108 231 -236 12 -38 31 -52 31 -23 0 34 45 131
78 167 38 42 82 68 150 88 23 7 42 17 42 21 0 4 -22 12 -50 19 -102 24 -170
94 -206 209 -11 34 -22 61 -26 61 -3 0 -16 -29 -28 -64z"/>
<path d="M1277 7842 c8 -112 -13 -169 -89 -245 -32 -32 -58 -60 -58 -63 0 -2
34 -4 76 -4 116 0 149 -13 224 -91 l65 -67 1 82 c0 66 5 91 26 136 32 65 41
77 91 114 20 16 37 31 37 35 0 3 -37 6 -82 6 -67 0 -91 4 -128 23 -52 28 -103
73 -131 120 -12 17 -24 32 -29 32 -4 0 -6 -35 -3 -78z"/>
<path d="M1766 7905 c-3 -8 -1 -15 4 -15 6 0 10 7 10 15 0 8 -2 15 -4 15 -2 0
-6 -7 -10 -15z"/>
<path d="M4413 7809 c-125 -21 -253 -93 -328 -186 -25 -30 -48 -61 -53 -67 -4
-8 -43 -15 -103 -19 -163 -11 -321 -83 -416 -191 -87 -99 -142 -247 -143 -381
l0 -60 -45 -28 c-133 -84 -225 -254 -225 -417 0 -62 -2 -67 -30 -84 -58 -34
-141 -129 -178 -205 -36 -73 -37 -77 -37 -190 0 -95 4 -130 24 -193 l24 -77
-44 -53 c-24 -29 -46 -55 -50 -58 -21 -19 -74 -111 -96 -167 -20 -53 -27 -92
-31 -174 -5 -119 9 -185 58 -276 27 -51 27 -54 10 -75 -31 -40 -78 -143 -94
-205 -21 -78 -20 -228 0 -307 21 -81 73 -173 138 -243 l52 -56 -23 -66 c-29
-79 -32 -212 -8 -305 45 -173 196 -318 370 -357 40 -9 55 -17 55 -29 0 -10 17
-51 37 -91 82 -165 259 -279 434 -279 l47 0 12 -66 c46 -243 277 -424 540
-424 133 0 340 50 470 112 163 78 297 251 335 433 13 60 15 364 15 2166 0
1341 -4 2115 -10 2148 -14 74 -78 206 -133 273 -51 61 -154 135 -232 166 -94
37 -231 50 -342 31z m285 -264 c112 -50 193 -165 192 -269 l-1 -31 -52 57
c-110 120 -215 167 -340 154 -93 -10 -169 -49 -238 -124 l-59 -65 44 -47 c24
-26 56 -71 71 -99 l26 -52 -26 -30 c-14 -17 -25 -36 -25 -42 0 -6 -12 13 -26
41 -108 216 -461 217 -554 1 -25 -58 -29 -139 -11 -206 6 -23 37 -76 67 -119
31 -43 58 -84 61 -91 3 -7 -26 -1 -76 17 -72 27 -86 29 -132 20 -135 -26 -225
-130 -237 -275 -6 -79 16 -155 66 -230 l39 -57 -26 -28 -26 -27 -51 53 c-29
29 -65 79 -80 111 -27 53 -29 67 -29 169 0 105 1 113 34 177 19 37 55 88 80
113 43 43 167 114 199 114 10 0 12 6 7 18 -36 87 -31 215 12 301 37 76 109
145 191 184 64 31 73 32 194 33 l128 1 38 59 c91 140 221 207 392 201 68 -3
98 -9 148 -32z m57 -462 c84 -44 145 -138 144 -223 l0 -45 -19 35 c-24 46 -90
114 -132 137 -78 41 -207 12 -262 -60 -53 -69 -69 -123 -64 -212 9 -141 78
-245 224 -341 45 -30 99 -73 119 -96 48 -52 84 -132 92 -200 l5 -53 -23 42
c-78 136 -216 214 -353 198 -109 -12 -189 -60 -238 -143 l-27 -45 -6 37 c-10
49 10 115 46 159 36 43 116 85 182 93 l49 7 -62 58 c-69 67 -116 84 -198 76
-103 -11 -191 -87 -231 -201 -13 -37 -27 -68 -31 -71 -12 -7 -32 46 -37 102
-5 46 -9 53 -36 64 -70 29 -100 74 -81 123 9 24 26 20 83 -19 l52 -34 35 39
c51 57 143 99 221 102 39 2 63 7 63 14 0 17 -68 74 -106 90 -46 19 -93 17
-136 -6 l-36 -19 -11 30 c-8 24 -7 37 5 61 41 80 208 75 295 -8 l26 -25 6 55
c13 126 105 251 216 293 52 19 176 12 226 -14z m67 -384 c17 -9 15 -13 -24
-32 -59 -30 -81 -74 -74 -148 3 -31 9 -64 12 -74 13 -33 -62 35 -86 78 -40 70
-10 159 61 184 36 12 79 9 111 -8z m-902 -524 c111 -26 215 -116 251 -217 14
-42 21 -45 39 -23 21 25 122 57 201 62 137 10 256 -34 352 -129 65 -64 102
-136 118 -227 17 -95 5 -103 -36 -24 -106 203 -327 307 -517 244 -75 -25 -105
-52 -180 -166 l-53 -80 38 -34 c21 -19 42 -42 48 -52 8 -16 5 -16 -38 3 -51
23 -49 23 -325 15 -98 -3 -163 -10 -196 -21 -90 -30 -151 -115 -152 -212 0
-49 -1 -50 -45 -72 -25 -12 -49 -22 -54 -22 -4 0 -11 31 -15 69 -12 131 49
252 159 317 l44 25 -35 49 c-54 75 -113 103 -214 102 -108 -1 -194 -58 -235
-156 -42 -100 5 -221 113 -288 88 -56 92 -60 95 -103 2 -40 2 -40 -33 -37 -19
2 -58 13 -87 24 -65 24 -61 26 -139 -87 -33 -47 -62 -85 -66 -85 -14 0 -8 99
8 142 9 24 29 59 45 79 l28 36 -33 46 c-160 225 -2 537 279 554 63 4 132 -8
185 -31 12 -5 19 4 28 40 37 136 157 244 296 264 28 4 53 8 56 9 3 0 34 -6 70
-14z m-773 -218 l21 -35 -26 -5 c-15 -2 -34 -7 -43 -11 -36 -16 -32 126 4 186
10 16 13 10 18 -41 3 -32 15 -75 26 -94z m1469 -548 c156 -29 284 -170 284
-314 0 -41 -3 -45 -27 -51 -16 -3 -34 -7 -40 -9 -7 -3 -15 8 -19 23 -31 148
-131 236 -266 234 -112 -2 -193 -63 -224 -169 -14 -47 -14 -65 -5 -107 17 -75
21 -78 90 -81 97 -4 181 -56 230 -142 5 -9 22 1 56 32 27 25 74 61 104 79 53
32 138 63 147 53 7 -7 -91 -134 -151 -197 -58 -60 -74 -87 -99 -170 -23 -74
-61 -127 -124 -174 -38 -29 -53 -47 -58 -72 -17 -94 79 -194 186 -194 74 0
162 64 176 128 3 15 7 33 10 40 2 7 -2 31 -10 52 -8 22 -9 40 -4 40 22 0 65
-31 76 -55 18 -40 15 -121 -7 -164 -22 -42 -80 -97 -117 -111 -31 -12 -30 -20
7 -56 17 -16 35 -38 41 -48 10 -18 7 -18 -33 -12 -66 10 -243 72 -286 99 -95
60 -156 162 -155 260 1 83 30 137 104 193 61 48 78 74 78 125 0 76 -53 141
-135 164 -47 14 -64 15 -108 5 -150 -35 -242 -138 -269 -305 -14 -81 -1 -152
43 -241 46 -92 117 -154 222 -194 123 -46 196 -79 246 -112 44 -28 44 -30 14
-23 -17 3 -80 8 -140 10 -60 1 -129 8 -153 15 -112 30 -220 115 -283 223 -24
41 -58 136 -71 199 l-6 27 -68 -20 c-37 -11 -107 -23 -157 -26 -76 -4 -100 -2
-154 17 -114 38 -177 95 -227 204 -107 235 62 527 335 579 l59 11 -31 38 c-32
40 -46 111 -33 164 l7 28 19 -41 c24 -54 98 -123 182 -169 132 -73 210 -164
243 -288 l18 -65 29 24 c16 14 40 28 53 31 23 6 23 7 9 47 -51 142 -29 258 68
363 44 48 120 90 188 103 63 12 69 12 136 0z m-1505 -531 c-3 -32 -13 -54 -42
-87 -90 -102 -121 -234 -79 -344 41 -110 155 -216 264 -247 25 -7 46 -16 46
-21 0 -15 -86 -21 -144 -10 -79 14 -123 37 -178 92 -93 93 -140 232 -119 355
14 76 28 108 80 178 33 45 139 126 165 126 7 0 10 -15 7 -42z m354 -612 c15
-11 18 -25 16 -81 -5 -159 109 -258 278 -242 32 2 80 14 106 26 45 20 49 20
67 5 49 -45 -4 -113 -112 -140 -51 -13 -69 -22 -65 -32 3 -8 5 -20 5 -27 0 -7
20 -44 45 -81 25 -37 43 -69 40 -72 -9 -9 -96 30 -138 62 -23 17 -55 55 -70
84 -16 29 -35 52 -44 52 -29 0 -85 -52 -106 -99 -14 -31 -21 -68 -21 -111 -1
-117 64 -216 178 -271 85 -41 158 -45 323 -20 76 12 153 23 172 26 44 6 160
-19 212 -45 89 -46 139 -110 198 -251 17 -42 43 -91 57 -110 31 -42 90 -79
127 -79 43 0 23 -17 -36 -30 -106 -24 -202 36 -246 154 -53 141 -92 190 -180
221 -49 17 -161 20 -242 5 -30 -5 -67 -12 -84 -14 -203 -35 -356 4 -472 120
-101 100 -147 246 -118 369 18 79 31 106 84 172 l40 51 -23 21 c-58 55 -104
193 -91 273 12 67 57 96 100 64z m-336 -510 c22 -30 62 -71 88 -92 71 -58 83
-79 36 -68 -156 36 -254 182 -216 323 5 20 10 13 29 -43 12 -37 40 -91 63
-120z m1081 112 c0 -38 44 -109 95 -157 35 -31 84 -60 151 -89 54 -24 123 -61
152 -83 l53 -40 52 17 c83 27 147 113 134 180 -3 19 4 31 34 54 46 37 51 32
57 -65 3 -57 0 -81 -15 -116 -28 -62 -74 -111 -130 -140 -26 -13 -50 -25 -52
-26 -2 -2 3 -11 11 -20 26 -29 48 -110 47 -171 0 -62 -13 -109 -22 -82 -27 81
-44 118 -76 158 -68 86 -157 157 -269 215 -59 31 -126 69 -149 86 -79 57 -122
167 -102 261 10 49 29 60 29 18z m-134 -938 c32 -58 88 -109 155 -139 l44 -21
-44 0 c-95 0 -172 45 -210 123 -26 53 -27 126 -4 170 l17 32 7 -56 c3 -32 18
-78 35 -109z"/>
<path d="M3750 6039 c-86 -39 -130 -101 -137 -193 -4 -53 -1 -69 24 -116 l28
-55 75 -8 c156 -15 256 12 306 85 49 70 32 180 -38 245 -65 61 -176 79 -258
42z"/>
<path d="M3718 5060 c-108 -19 -205 -83 -251 -168 -60 -111 -57 -219 11 -312
72 -98 172 -120 336 -75 54 14 104 24 112 21 9 -3 15 7 20 32 3 20 8 45 11 55
7 25 -47 74 -90 82 -57 11 -103 -2 -143 -40 -20 -19 -38 -35 -40 -35 -5 0 6
58 17 96 32 106 182 127 276 38 19 -19 37 -34 38 -34 1 0 8 13 15 30 36 88
-78 275 -188 308 -43 13 -55 13 -124 2z"/>
<path d="M5735 7810 c-225 -40 -398 -195 -470 -423 l-25 -78 0 -2099 c0 -1795
2 -2109 15 -2168 49 -234 186 -396 408 -482 187 -72 445 -98 567 -56 194 66
334 215 372 397 11 57 13 59 47 65 221 37 326 98 415 237 19 30 42 76 51 104
16 49 17 50 76 67 188 52 332 202 370 385 15 74 7 213 -17 282 l-20 56 46 51
c57 64 104 142 132 218 29 83 36 246 13 333 -17 67 -66 173 -93 204 -14 15
-12 24 20 95 66 141 73 272 24 413 -28 81 -68 144 -151 242 -44 52 -54 71 -46
81 20 24 51 127 57 190 15 158 -70 341 -205 440 l-51 38 0 58 c0 168 -82 320
-224 416 l-49 33 -4 91 c-5 145 -50 256 -146 358 -104 110 -233 168 -399 179
l-97 6 -27 39 c-66 95 -187 178 -314 215 -71 21 -196 27 -275 13z m290 -269
c77 -36 155 -105 198 -178 l31 -52 61 5 c33 3 68 7 78 9 30 6 142 -22 193 -48
70 -36 137 -105 175 -182 30 -60 33 -77 34 -154 0 -47 -4 -103 -9 -123 -6 -27
-5 -38 4 -38 6 0 35 -11 64 -25 165 -78 254 -227 244 -408 -5 -103 -37 -176
-109 -252 l-51 -55 -27 23 -27 22 38 59 c120 186 76 407 -99 493 -72 34 -134
34 -220 0 -35 -14 -63 -24 -63 -21 0 2 23 35 50 73 72 99 94 153 94 232 0 167
-133 286 -309 277 -120 -6 -234 -77 -280 -174 l-17 -36 -25 43 -25 44 24 44
c12 24 45 68 71 97 l49 54 -39 47 c-51 62 -140 119 -211 134 -137 28 -255 -14
-368 -133 l-69 -73 -3 33 c-9 90 80 218 180 262 76 34 112 40 211 35 72 -3
100 -9 152 -34z m-188 -446 c102 -30 205 -167 220 -293 l6 -50 43 33 c57 44
104 58 172 53 47 -4 60 -10 85 -38 23 -26 28 -38 23 -63 -8 -40 -9 -41 -45
-23 -67 35 -161 8 -229 -66 l-23 -25 62 -7 c87 -9 171 -49 223 -107 l43 -48
48 40 c26 21 53 39 59 39 20 0 36 -23 36 -51 0 -30 -56 -85 -97 -95 -20 -5
-23 -13 -23 -53 0 -29 -8 -59 -21 -80 l-21 -35 -19 53 c-56 160 -162 242 -294
228 -66 -7 -88 -18 -160 -84 l-57 -53 31 0 c52 0 138 -39 183 -83 45 -44 68
-97 68 -159 0 -50 -10 -53 -32 -8 -41 83 -154 142 -270 142 -106 0 -162 -24
-238 -101 -36 -36 -74 -82 -84 -101 l-17 -35 5 53 c6 65 42 145 86 195 18 21
73 65 122 99 146 100 216 200 225 322 13 162 -74 292 -208 311 -86 13 -181
-48 -244 -155 l-27 -45 7 60 c18 182 179 284 362 230z m-172 -389 c64 -27 95
-119 61 -184 -17 -32 -83 -98 -91 -90 -3 2 0 19 6 37 16 44 6 127 -18 159 -11
15 -39 34 -62 43 l-42 15 33 16 c42 21 70 22 113 4z m992 -548 c73 -27 146
-96 184 -173 17 -35 32 -75 33 -90 1 -21 5 -25 21 -20 146 45 234 45 326 2
202 -96 269 -340 144 -529 l-26 -39 26 -35 c14 -18 35 -53 45 -76 20 -44 27
-133 11 -142 -5 -3 -40 36 -78 87 -74 99 -77 100 -148 74 -22 -8 -56 -17 -75
-19 -35 -3 -35 -3 -38 39 l-3 42 59 30 c82 41 121 77 148 136 43 91 29 185
-38 261 -99 113 -308 102 -401 -21 l-37 -47 38 -25 c83 -56 136 -126 157 -208
8 -32 8 -150 -1 -176 -4 -15 -10 -15 -52 6 l-46 22 -2 55 c-2 63 -27 119 -76
165 -58 56 -96 66 -268 70 -85 2 -189 4 -230 5 -62 2 -83 -2 -120 -21 l-45
-24 26 34 c14 19 39 43 55 54 l30 19 -54 81 c-29 44 -71 97 -93 117 -90 83
-258 90 -399 18 -64 -32 -159 -135 -200 -216 l-35 -69 -3 48 c-6 86 46 204
124 282 25 24 79 61 121 82 76 37 79 38 192 38 99 0 123 -3 166 -23 27 -12 57
-30 66 -38 16 -14 19 -11 42 39 81 178 269 254 454 185z m612 -76 c20 -39 26
-78 23 -141 -2 -32 -3 -33 -34 -27 -47 9 -50 17 -27 61 15 30 19 53 16 93 -2
28 -2 52 -1 52 2 0 12 -17 23 -38z m-1297 -699 c166 -74 243 -269 173 -436
-15 -37 -15 -37 11 -47 15 -6 39 -19 54 -30 l28 -20 12 48 c17 68 65 153 113
200 23 22 80 63 126 91 114 70 166 115 190 163 16 33 22 38 27 24 17 -44 -27
-186 -57 -186 -5 0 -9 -3 -9 -8 0 -4 26 -12 58 -18 328 -63 484 -448 273 -677
-126 -136 -275 -159 -540 -83 -2 1 -11 -28 -21 -64 -25 -96 -75 -187 -141
-256 -102 -105 -197 -140 -402 -146 -93 -3 -106 -2 -90 10 33 25 133 73 216
103 151 56 215 111 275 237 31 66 35 83 35 156 0 102 -21 167 -78 245 -132
179 -401 163 -431 -26 -9 -60 9 -95 72 -143 36 -27 63 -58 80 -92 23 -45 26
-61 22 -123 -10 -152 -103 -247 -298 -305 -41 -12 -95 -28 -120 -36 -24 -7
-47 -11 -49 -8 -7 7 22 56 51 83 l27 25 -28 12 c-48 20 -109 83 -127 130 -31
82 -2 179 60 195 23 7 27 5 21 -9 -32 -78 -2 -165 74 -214 41 -26 53 -29 108
-26 43 3 71 10 90 24 58 43 93 123 79 178 -3 14 -32 45 -64 69 -64 49 -100
106 -127 201 -14 50 -28 72 -84 130 -69 72 -164 196 -157 204 3 2 27 -3 55
-13 61 -20 154 -80 200 -129 37 -38 51 -45 51 -23 0 26 62 86 114 112 38 19
72 27 117 28 l64 3 18 49 c55 156 -59 310 -227 306 -130 -3 -220 -76 -255
-209 -11 -41 -13 -42 -53 -42 l-41 0 5 63 c19 238 275 381 500 280z m1430
-555 c55 -56 95 -136 110 -219 27 -152 -72 -343 -215 -416 -54 -27 -160 -42
-211 -29 -31 8 -35 26 -5 26 42 0 153 63 207 116 97 97 133 224 97 336 -22 66
-38 92 -88 145 -33 35 -41 50 -45 94 l-5 52 54 -29 c30 -16 75 -50 101 -76z
m-428 -564 c22 -22 29 -56 24 -122 -5 -65 -48 -169 -84 -203 -31 -29 -30 -39
5 -73 41 -39 81 -124 94 -199 21 -123 -23 -252 -118 -352 -64 -67 -133 -102
-240 -121 -77 -15 -94 -15 -207 1 -280 40 -365 30 -440 -50 -23 -24 -52 -70
-65 -102 -57 -138 -84 -175 -148 -204 -46 -21 -84 -23 -139 -8 l-39 11 62 30
c70 34 108 78 141 165 63 169 137 249 269 287 73 21 146 20 304 -5 161 -25
242 -21 327 17 68 30 132 93 161 159 55 124 -9 315 -105 315 -22 0 -36 -5 -36
-13 0 -7 -16 -36 -35 -64 -29 -43 -48 -58 -110 -89 -41 -20 -78 -34 -81 -31
-4 3 8 25 26 47 18 23 43 67 56 98 l23 57 -27 7 c-15 4 -46 12 -69 18 -50 12
-103 62 -103 95 0 13 9 30 21 39 19 13 26 12 72 -10 62 -29 167 -33 224 -9
100 42 160 134 150 230 -6 56 -2 66 28 83 27 16 41 15 59 -4z m364 -411 c-10
-134 -96 -232 -226 -256 -47 -9 -38 8 36 68 76 61 135 139 157 205 24 72 39
64 33 -17z m-1138 -52 c0 -111 -75 -203 -230 -281 -175 -88 -280 -184 -339
-310 -17 -36 -31 -71 -31 -77 0 -7 -4 -13 -9 -13 -5 0 -13 25 -17 56 -7 61 8
154 32 191 17 26 18 43 4 43 -6 0 -34 15 -63 33 -93 60 -135 147 -122 258 10
82 16 88 59 55 31 -24 36 -32 36 -70 0 -88 66 -164 158 -181 29 -5 41 -1 85
34 29 21 101 61 160 87 80 34 121 59 157 94 51 50 90 115 90 152 1 22 1 22 15
4 9 -12 15 -42 15 -75z m166 -753 c24 -47 15 -128 -22 -181 -37 -54 -119 -97
-183 -97 l-46 0 40 19 c97 45 170 143 182 242 3 27 7 49 9 49 2 0 11 -14 20
-32z"/>
<path d="M6409 6032 c-101 -53 -147 -180 -97 -267 48 -82 136 -112 290 -98 90
8 93 9 115 42 54 80 54 167 0 248 -66 100 -199 132 -308 75z"/>
<path d="M6511 5053 c-112 -40 -194 -193 -167 -312 l8 -34 24 30 c31 40 103
73 156 73 82 0 132 -52 144 -147 6 -47 6 -47 -11 -25 -39 53 -136 77 -194 48
-28 -15 -62 -70 -56 -90 2 -6 6 -23 9 -38 5 -22 14 -28 53 -37 27 -6 73 -18
103 -26 114 -31 203 -16 274 46 66 58 89 108 90 194 0 111 -44 190 -148 267
-73 53 -211 78 -285 51z"/>
<path d="M3556 7728 c-13 -19 -14 -25 -2 -43 28 -41 76 -26 76 25 0 44 -48 55
-74 18z"/>
<path d="M7513 7638 c-18 -24 -22 -46 -10 -61 21 -26 46 -28 67 -5 25 27 25
33 0 58 -23 23 -43 26 -57 8z"/>
<path d="M2225 7335 c-78 -38 -160 -51 -226 -36 -24 6 -45 8 -47 6 -2 -2 4
-17 13 -34 l16 -31 89 0 c90 0 167 20 230 59 14 8 26 16 28 17 6 3 -18 54 -25
53 -5 0 -39 -16 -78 -34z"/>
<path d="M2296 7248 c-75 -45 -155 -62 -235 -50 -36 5 -67 9 -68 8 -4 -3 81
-163 95 -180 44 -50 160 -71 250 -47 46 13 122 49 122 58 0 8 -102 226 -109
234 -3 4 -28 -7 -55 -23z"/>
<path d="M7368 7153 c-147 -114 -151 -119 -123 -143 12 -10 33 3 119 69 117
91 119 93 110 115 -10 26 -27 19 -106 -41z"/>
<path d="M2901 7172 c-8 -14 3 -27 57 -73 123 -102 140 -113 157 -99 8 7 15
16 15 21 0 11 -196 169 -209 169 -6 0 -15 -8 -20 -18z"/>
<path d="M560 7137 c0 -8 48 -65 108 -128 59 -63 139 -149 178 -192 63 -70 81
-83 160 -119 49 -22 274 -122 499 -223 226 -101 480 -215 564 -253 l155 -70
44 97 c47 104 122 281 122 288 0 4 -101 53 -230 111 -25 11 -126 57 -225 102
-99 45 -241 109 -315 142 -74 33 -217 100 -318 149 l-183 88 -225 10 c-299 14
-334 14 -334 -2z m335 -67 c83 -6 171 -16 197 -21 44 -10 47 -13 42 -35 -4
-16 3 -39 21 -70 l27 -46 -58 8 -57 7 6 -41 c4 -22 9 -47 13 -55 5 -13 -1 -13
-41 1 -34 11 -52 12 -68 5 -21 -10 -29 -4 -80 56 -32 36 -84 95 -117 131 -59
64 -72 83 -47 75 6 -2 80 -9 162 -15z m497 -166 c68 -31 152 -70 188 -86 36
-17 148 -67 250 -113 213 -96 426 -195 454 -211 12 -7 17 -18 13 -28 -6 -14
-13 -13 -64 10 -32 15 -105 48 -163 74 -58 26 -177 80 -265 120 -88 40 -198
90 -245 110 -173 78 -255 116 -271 125 -15 9 -36 55 -25 55 3 0 60 -25 128
-56z m118 -240 c327 -145 677 -305 704 -321 12 -6 17 -17 13 -26 -5 -13 -35
-2 -169 60 -90 41 -217 99 -283 128 -406 181 -561 251 -572 258 -7 5 -13 15
-13 23 0 21 3 20 320 -122z"/>
<path d="M7485 6899 c-147 -98 -148 -99 -130 -122 12 -17 21 -13 126 57 63 41
122 82 132 90 19 15 20 47 2 52 -5 1 -64 -33 -130 -77z"/>
<path d="M2734 6949 c-9 -10 -15 -21 -13 -23 8 -8 185 -123 229 -149 45 -26
46 -26 58 -7 7 11 12 22 12 24 0 3 -44 32 -97 66 -54 34 -114 72 -134 85 -36
24 -37 24 -55 4z"/>
<path d="M2672 6698 c-25 -25 -10 -44 76 -95 134 -79 133 -79 149 -57 16 22
17 21 -82 81 -44 27 -92 57 -106 66 -19 13 -28 14 -37 5z"/>
<path d="M7585 6654 c-49 -30 -99 -64 -110 -75 -18 -17 -18 -20 -3 -35 15 -15
25 -11 128 56 77 50 109 77 106 87 -4 8 -6 17 -6 19 0 13 -35 -3 -115 -52z"/>
<path d="M9578 6468 c-182 -195 -165 -179 -178 -163 -14 17 -83 43 -125 48
-41 5 -103 -10 -134 -32 -26 -19 -171 -284 -171 -313 0 -17 43 -58 129 -123
86 -65 131 -85 190 -85 69 0 96 26 181 175 54 94 69 129 65 148 -6 24 -5 25
87 36 51 6 122 14 158 17 50 5 73 12 100 34 47 37 51 60 10 60 -17 0 -61 7
-98 15 -37 8 -91 18 -120 22 l-52 8 79 124 80 123 -28 24 c-16 13 -31 24 -34
24 -3 0 -65 -64 -139 -142z m-228 -204 c16 -19 30 -43 30 -54 0 -34 -181 -363
-188 -341 -2 6 -40 37 -84 68 -44 31 -82 61 -84 67 -4 11 117 259 137 281 11
11 93 22 131 16 16 -2 41 -18 58 -37z m307 0 c-3 -3 -12 -4 -19 -1 -8 3 -5 6
6 6 11 1 17 -2 13 -5z"/>
<path d="M9263 6244 c-3 -9 3 -24 15 -36 22 -22 52 -19 52 6 0 8 -7 22 -16 30
-20 20 -43 20 -51 0z"/>
<path d="M9122 6164 c-7 -14 -12 -27 -12 -30 0 -2 32 -25 72 -50 l72 -46 18
22 c25 31 23 46 -9 59 -16 5 -51 24 -79 40 l-51 31 -11 -26z"/>
<path d="M9070 6060 c-15 -27 -5 -40 72 -91 l58 -38 15 22 c8 12 15 26 15 32
-1 10 -100 78 -132 90 -11 4 -20 -1 -28 -15z"/>
<path d="M2405 6468 c-10 -29 -45 -113 -77 -187 -32 -73 -55 -137 -53 -142 7
-11 112 -49 136 -49 42 0 94 38 121 87 66 122 83 225 46 270 -12 15 -128 73
-146 73 -4 0 -17 -24 -27 -52z m118 -69 c6 -9 7 -23 4 -32 -5 -14 -11 -14 -37
-6 -28 10 -40 36 -23 53 12 11 45 2 56 -15z"/>
<path d="M1095 6348 c-44 -28 -183 -116 -310 -196 -126 -80 -245 -157 -262
-170 l-33 -24 238 -117 c130 -65 307 -152 392 -194 l155 -76 70 43 c96 59 472
279 514 301 33 17 61 9 47 -14 -4 -6 -84 -56 -179 -112 -95 -56 -229 -136
-299 -177 l-128 -76 0 -188 c0 -103 2 -188 5 -188 4 0 76 42 513 300 l122 72
1 137 0 136 44 -87 c43 -83 65 -113 65 -87 0 7 9 22 20 34 l20 21 -70 135
c-38 73 -70 141 -70 150 0 10 11 20 25 23 27 7 36 46 11 46 -8 0 -70 -16 -138
-36 -369 -108 -650 -185 -656 -179 -2 2 -1 12 2 22 4 14 40 27 143 55 76 21
210 58 298 84 88 25 182 51 209 58 l49 12 -34 21 c-19 11 -109 55 -200 98 -90
43 -230 111 -311 151 -81 41 -153 74 -160 73 -7 0 -49 -23 -93 -51z m375 -155
c194 -97 249 -128 229 -131 -14 -1 -72 15 -128 38 l-103 41 -31 -20 -32 -19
-125 55 c-121 52 -147 57 -157 26 -2 -5 18 -18 44 -28 104 -40 254 -116 251
-127 -11 -32 -36 -29 -165 21 -174 67 -195 70 -255 31 -60 -38 -62 -53 -5 -43
86 16 138 9 230 -31 48 -21 87 -41 87 -45 0 -4 -20 -16 -45 -28 -33 -15 -45
-17 -45 -8 0 25 -30 44 -87 55 -52 11 -67 10 -170 -16 -61 -15 -110 -31 -108
-34 3 -4 25 -13 50 -20 40 -11 54 -10 118 9 114 33 133 27 106 -33 -13 -28
-18 -31 -108 -56 -62 -18 -66 -18 -110 0 -82 32 -276 131 -276 140 0 5 90 66
200 136 110 69 234 148 275 174 41 27 82 47 90 44 8 -2 130 -61 270 -131z"/>
<path d="M7783 6215 c-39 -28 -34 -98 9 -114 54 -20 114 40 89 88 -22 40 -63
51 -98 26z"/>
<path d="M8142 6061 c-31 -96 -82 -151 -183 -198 -43 -21 -79 -40 -79 -43 0
-4 24 -14 54 -23 103 -33 167 -101 208 -222 9 -27 20 -49 24 -48 4 1 15 26 24
55 37 120 93 180 199 216 28 9 49 22 48 27 -1 6 -26 20 -55 31 -29 12 -68 34
-87 49 -42 31 -90 111 -107 177 -6 27 -15 48 -18 48 -3 0 -16 -31 -28 -69z"/>
<path d="M8702 6118 c-7 -7 -12 -21 -12 -33 0 -12 5 -26 12 -33 7 -7 21 -12
33 -12 12 0 26 5 33 12 7 7 12 21 12 33 0 12 -5 26 -12 33 -7 7 -21 12 -33 12
-12 0 -26 -5 -33 -12z"/>
<path d="M486 5878 c1 -18 3 -102 3 -185 l1 -153 343 -171 c188 -94 357 -177
375 -184 l32 -14 0 183 0 183 -375 186 c-207 103 -377 187 -379 187 -2 0 -2
-15 0 -32z"/>
<path d="M2385 5718 c-32 -19 -44 -40 -45 -79 0 -62 60 -98 125 -73 19 8 45
55 45 83 0 50 -81 95 -125 69z"/>
<path d="M8940 5674 c-25 -14 -103 -58 -175 -96 -71 -39 -156 -86 -187 -105
l-58 -34 20 -39 c26 -51 29 -204 4 -231 -12 -14 -13 -22 -4 -39 16 -30 27
-270 12 -270 -20 0 -13 -34 9 -48 40 -26 376 -213 589 -330 30 -16 92 -50 138
-75 l83 -46 102 56 c56 31 130 74 165 95 l62 38 47 -64 c47 -65 63 -73 63 -33
0 35 15 50 44 45 14 -3 26 -3 26 -1 0 2 -18 28 -40 58 l-40 54 39 20 c21 11
53 37 70 58 l31 38 0 221 c0 205 -1 223 -20 246 -16 21 -435 259 -610 347
l-45 23 -85 -49 c-47 -27 -152 -84 -233 -127 l-147 -77 -2 -276 c-3 -255 -4
-275 -19 -260 -14 14 -16 50 -15 291 1 201 -2 276 -10 276 -19 0 -144 74 -141
84 3 9 29 24 252 142 l130 70 53 -27 c30 -15 59 -32 65 -39 9 -10 9 -11 -2 -5
-9 5 -12 4 -7 -3 9 -14 77 -6 94 12 12 11 -3 23 -91 70 -58 31 -109 56 -113
56 -5 0 -29 -12 -54 -26z m480 -259 c5 -14 12 -25 15 -25 4 0 3 5 0 10 -8 13
1 13 26 0 10 -6 19 -21 20 -33 0 -21 1 -21 10 -2 9 19 9 19 5 -2 -2 -12 3 -28
11 -34 19 -17 39 -54 23 -44 -9 5 -10 1 -6 -16 3 -13 3 -18 0 -11 -7 15 -34
16 -34 1 0 -5 4 -8 9 -5 4 3 6 -7 4 -22 -3 -19 -2 -23 5 -14 7 11 10 11 15 -3
4 -9 3 -14 -2 -10 -5 3 -11 -1 -14 -7 -2 -7 -9 3 -15 22 -6 19 -11 27 -11 18
-1 -10 -10 -22 -21 -28 -16 -9 -18 -8 -14 5 5 12 2 14 -12 8 -17 -6 -17 -5 -5
10 12 15 12 17 -3 11 -9 -3 -16 -1 -16 6 0 6 5 8 10 5 6 -3 10 -1 10 4 0 6 -7
11 -15 11 -8 0 -15 -8 -15 -17 0 -15 -2 -16 -10 -3 -11 17 -13 9 -4 -15 5 -13
8 -14 15 -3 7 10 9 9 9 -4 0 -10 -7 -18 -15 -18 -8 0 -15 -4 -15 -10 0 -5 -5
-10 -11 -10 -5 0 -8 4 -4 9 7 12 -47 3 -59 -10 -6 -6 -6 -13 2 -21 14 -14 16
-62 2 -53 -5 3 -7 12 -4 19 3 7 -3 19 -13 27 -17 13 -17 13 -4 -4 11 -14 12
-20 2 -30 -10 -9 -12 -9 -9 1 4 20 -38 47 -48 31 -4 -8 -3 -9 4 -5 16 10 16
-26 0 -42 -9 -9 -9 -12 0 -12 7 0 11 -10 11 -22 -1 -18 -2 -19 -6 -5 -2 9 -9
15 -14 12 -5 -4 -9 -1 -9 5 0 6 -4 8 -10 5 -5 -3 -11 4 -11 17 -1 17 -3 18 -6
6 -5 -22 -22 -23 -29 -3 -4 8 -10 12 -15 9 -5 -3 -9 0 -9 6 0 6 -4 8 -10 5 -5
-3 -10 2 -10 12 0 11 -3 14 -8 7 -5 -8 -22 -5 -57 12 -27 13 -53 23 -57 24 -4
0 -6 -119 -5 -265 2 -231 0 -265 -13 -263 -13 3 -15 42 -15 277 l0 275 150 83
c174 97 265 143 283 143 7 0 17 -11 22 -25z m-690 -165 l0 -29 -45 26 c-50 27
-50 27 -59 65 l-6 26 55 -30 c47 -25 55 -34 55 -58z m847 56 c0 -15 -21 -16
-34 -1 -4 4 -3 5 4 1 6 -3 14 -2 18 4 8 14 12 13 12 -4z m-901 -96 c40 -28 66
-72 50 -87 -3 -3 -27 7 -53 23 -39 24 -49 36 -51 62 -2 18 0 32 3 32 4 0 26
-14 51 -30z m662 -40 c15 0 15 2 2 10 -13 8 -12 10 3 10 10 0 17 -7 17 -17 0
-11 3 -14 8 -7 11 16 52 25 46 9 -3 -7 -12 -12 -21 -11 -9 0 -18 -4 -20 -11
-3 -8 4 -10 20 -7 14 2 29 -2 35 -9 9 -10 3 -13 -24 -14 -19 0 -34 4 -35 11 0
6 -4 2 -9 -9 -6 -13 -9 -15 -9 -5 -1 13 -2 13 -12 0 -8 -12 -9 -11 -4 6 3 13
-1 26 -10 34 -8 7 -15 18 -14 24 0 7 2 6 6 -1 2 -7 12 -13 21 -13z m182 -13
c0 -7 -4 -6 -10 3 -8 12 -10 12 -10 -5 0 -16 -2 -17 -10 -5 -6 9 -5 17 3 22
14 8 27 1 27 -15z m-73 -9 c-3 -8 -6 -5 -6 6 -1 11 2 17 5 13 3 -3 4 -12 1
-19z m421 -6 c6 -9 12 -42 12 -75 0 -49 -4 -62 -24 -80 -29 -26 -498 -269
-505 -262 -15 15 69 69 266 171 123 63 227 124 233 134 26 49 -2 107 -47 95
-32 -8 -358 -192 -407 -230 -27 -21 -15 -28 20 -11 16 7 42 17 58 20 25 6 28
5 17 -8 -14 -16 -128 -86 -133 -81 -2 2 -1 29 2 60 l5 57 130 70 c295 159 316
169 338 162 12 -3 28 -13 35 -22z m-596 -15 c3 -16 0 -24 -9 -24 -8 0 -11 7
-8 14 3 8 5 19 5 24 0 18 8 9 12 -14z m-5 -59 c-3 -8 -6 -5 -6 6 -1 11 2 17 5
13 3 -3 4 -12 1 -19z m20 -10 c-3 -7 -5 -2 -5 12 0 14 2 19 5 13 2 -7 2 -19 0
-25z m90 10 c-3 -8 -6 -5 -6 6 -1 11 2 17 5 13 3 -3 4 -12 1 -19z m-726 -8
c51 -27 79 -55 79 -80 0 -19 -6 -16 -60 20 -33 22 -60 42 -60 45 0 2 -3 10 -6
19 -8 21 -1 20 47 -4z m618 -99 c19 -14 40 -40 47 -58 15 -36 19 -109 6 -117
-5 -3 -63 25 -130 62 -90 50 -123 73 -127 91 -3 13 -4 26 0 29 3 3 59 -22 124
-56 66 -34 122 -62 125 -62 13 0 5 28 -11 42 -10 9 -63 41 -118 73 -113 64
-110 62 -119 91 -6 19 3 16 81 -24 49 -25 103 -57 122 -71z m60 82 c0 -11 -3
-13 -6 -5 -2 6 -9 10 -14 6 -5 -3 -9 0 -9 5 0 6 7 11 15 11 8 0 15 -8 14 -17z
m-655 -106 c43 -24 55 -48 47 -89 l-6 -27 -47 35 c-41 29 -48 39 -48 69 0 41
3 42 54 12z m1191 -203 c-8 -13 -23 -24 -32 -24 -14 0 -14 3 3 21 19 21 27 99
13 114 -6 6 -225 -104 -384 -192 -49 -27 -54 -32 -27 -27 36 7 45 -10 11 -21
-40 -13 -129 -69 -129 -82 0 -7 -3 -13 -7 -13 -5 0 -62 29 -128 64 -118 62
-120 64 -123 100 l-3 37 130 -66 129 -66 26 26 c14 14 26 30 26 34 0 5 114 67
253 139 l252 130 3 -75 c2 -55 -1 -81 -13 -99z m-691 24 c124 -70 146 -86 146
-108 0 -15 -19 -8 -112 45 -130 74 -158 92 -158 105 0 20 36 8 124 -42z"/>
<path d="M9406 5355 c-3 -8 -1 -15 4 -15 6 0 10 7 10 15 0 8 -2 15 -4 15 -2 0
-6 -7 -10 -15z"/>
<path d="M9458 5352 c-4 -12 -3 -20 2 -17 9 5 20 -18 20 -42 0 -9 -6 -13 -14
-10 -19 8 -29 -20 -16 -44 12 -21 24 -26 18 -7 -3 7 1 19 9 26 7 7 13 25 14
40 l1 27 7 -25 c6 -21 8 -22 14 -8 4 11 -2 23 -17 35 -12 10 -25 25 -28 33 -3
10 -6 8 -10 -8z"/>
<path d="M9351 5323 c-10 -26 -10 -27 4 -9 8 11 15 23 15 28 0 15 -7 8 -19
-19z"/>
<path d="M9395 5320 c-4 -6 -11 -8 -16 -5 -5 3 -6 -1 -2 -10 4 -12 8 -13 13
-5 4 7 14 16 21 21 9 6 10 9 2 9 -6 0 -15 -5 -18 -10z"/>
<path d="M9444 5306 c-3 -9 -16 -16 -28 -17 -20 0 -20 -1 -1 -8 15 -6 23 -3
31 12 9 15 13 17 17 6 3 -8 6 -9 6 -2 1 19 -19 26 -25 9z"/>
<path d="M9290 5283 c0 -7 -5 -12 -11 -10 -6 1 -14 -5 -16 -13 -4 -13 -3 -13
6 0 9 13 11 12 12 -5 l0 -20 9 20 c5 12 9 14 9 6 1 -8 4 -12 7 -8 3 3 1 14 -5
24 -6 10 -11 12 -11 6z"/>
<path d="M9327 5275 c-4 -9 -3 -14 2 -10 5 3 11 1 13 -4 1 -5 14 -3 28 5 25
15 25 15 1 8 -14 -4 -26 -1 -31 6 -5 8 -9 7 -13 -5z"/>
<path d="M9355 5240 c-3 -5 -13 -6 -23 -3 -9 3 -14 3 -11 -1 4 -4 19 -9 35
-11 16 -2 23 -2 16 1 -6 3 -10 10 -6 15 3 5 3 9 0 9 -3 0 -7 -4 -11 -10z"/>
<path d="M9245 5199 c-4 -6 -4 -13 -1 -16 3 -4 6 0 6 8 0 11 2 11 10 -1 8 -13
10 -12 10 3 0 19 -15 23 -25 6z"/>
<path d="M9198 5189 c-4 -10 1 -15 13 -16 12 -1 19 5 19 15 0 13 -2 14 -9 3
-7 -11 -9 -11 -13 0 -3 10 -6 10 -10 -2z"/>
<path d="M9345 5150 c3 -5 8 -10 11 -10 2 0 4 5 4 10 0 6 -5 10 -11 10 -5 0
-7 -4 -4 -10z"/>
<path d="M9916 5648 c-21 -29 -20 -41 2 -61 24 -22 45 -21 65 1 22 24 21 45
-1 65 -25 23 -48 21 -66 -5z"/>
<path d="M9090 5520 c-9 -6 -10 -10 -3 -10 6 0 15 5 18 10 8 12 4 12 -15 0z"/>
<path d="M8960 5496 c0 -2 8 -10 18 -17 15 -13 16 -12 3 4 -13 16 -21 21 -21
13z"/>
<path d="M2086 5398 c-3 -7 -10 -31 -16 -53 -30 -98 -107 -178 -205 -212 -51
-17 -59 -39 -17 -49 51 -13 119 -53 152 -90 29 -34 47 -67 89 -168 15 -35 22
-27 44 44 30 100 100 171 203 208 27 9 51 21 52 27 2 5 -25 21 -61 36 -107 43
-152 90 -192 201 -22 61 -41 83 -49 56z m55 -256 c27 -24 30 -31 21 -49 -6
-11 -23 -28 -37 -37 -24 -16 -26 -15 -62 19 l-38 35 33 30 c18 17 37 30 42 30
5 0 24 -13 41 -28z"/>
<path d="M8072 5237 c-6 -7 -12 -33 -14 -57 -3 -44 -4 -45 -33 -42 -44 4 -85
-14 -85 -37 0 -28 38 -51 82 -51 l38 0 0 -43 c0 -32 6 -49 21 -63 21 -19 21
-18 45 9 16 19 24 40 24 65 0 36 1 37 39 37 44 1 71 18 71 46 0 23 -36 39 -84
39 -33 0 -33 1 -34 47 -1 26 -7 50 -14 55 -19 12 -44 10 -56 -5z"/>
<path d="M503 5187 c-25 -11 -31 -55 -11 -75 16 -16 53 -15 68 2 30 37 -14 94
-57 73z"/>
<path d="M964 5031 c-17 -10 -42 -33 -55 -50 -23 -29 -26 -30 -64 -20 -115 32
-251 -38 -299 -153 -14 -32 -20 -36 -65 -42 -35 -5 -59 -15 -80 -35 -53 -49
-47 -72 91 -338 67 -130 130 -245 140 -255 32 -32 80 -23 181 35 50 30 188
104 305 167 214 113 242 135 242 185 0 27 -250 494 -273 510 -29 21 -86 19
-123 -4z m202 -274 c63 -119 114 -226 114 -237 0 -11 -9 -24 -19 -30 -18 -9
-26 2 -87 117 -37 71 -94 177 -126 237 -47 87 -56 111 -47 123 30 35 49 11
165 -210z m-312 119 c143 -60 76 -276 -86 -276 -103 0 -167 66 -154 159 14
101 135 161 240 117z m-344 -228 c12 -24 67 -128 122 -231 54 -103 98 -196 96
-205 -2 -11 -13 -17 -28 -17 -22 0 -37 23 -142 225 -65 124 -118 233 -118 242
0 17 29 40 41 32 4 -2 17 -23 29 -46z m476 -43 c9 -48 -15 -81 -82 -112 -66
-30 -89 -27 -115 15 l-21 32 34 0 c55 1 158 59 158 90 0 26 20 6 26 -25z m84
-164 c0 -5 2 -16 5 -23 4 -10 -22 -29 -83 -61 -49 -26 -92 -47 -95 -47 -4 0
-11 9 -16 19 -9 17 -3 23 50 51 33 17 75 40 92 51 35 21 47 24 47 10z"/>
<path d="M1509 4999 c-16 -30 3 -69 34 -69 29 0 47 17 47 45 0 45 -60 63 -81
24z"/>
<path d="M1638 4643 l-98 -4 0 -29 0 -30 389 0 388 0 -1 33 -1 32 -290 0
c-159 1 -334 -1 -387 -2z"/>
<path d="M8060 4610 l0 -30 139 0 c145 0 160 5 145 45 -5 12 -31 15 -145 15
l-139 0 0 -30z"/>
<path d="M8426 4625 c-14 -37 3 -46 83 -43 75 3 76 3 79 31 l3 27 -79 0 c-62
0 -81 -3 -86 -15z"/>
<path d="M1833 4415 c-284 -110 -453 -221 -518 -342 l-20 -38 -80 -3 c-102 -4
-188 -25 -299 -73 -144 -62 -316 -168 -346 -213 -10 -16 -8 -28 15 -77 l28
-58 -26 -31 c-29 -33 -43 -86 -32 -119 4 -12 62 -124 130 -249 67 -125 151
-281 187 -346 72 -135 98 -160 165 -161 l46 -1 39 -77 c21 -42 45 -77 53 -77
8 0 139 65 292 145 276 145 277 146 321 136 91 -19 195 39 218 120 9 32 22 40
280 169 149 74 279 141 288 149 24 20 20 42 -25 119 l-41 71 21 44 c30 62 28
129 -7 197 -104 204 -337 631 -352 645 -24 22 -78 33 -113 24 -25 -7 -30 -3
-59 42 -18 27 -37 49 -43 48 -5 0 -60 -20 -122 -44z m105 -67 c9 -12 42 -71
172 -313 24 -44 69 -127 101 -185 31 -58 77 -144 102 -190 25 -47 63 -119 86
-160 22 -41 41 -78 41 -82 0 -3 -33 -19 -72 -34 -200 -75 -395 -178 -470 -248
l-26 -25 -22 42 c-41 79 -223 412 -260 477 -20 36 -70 124 -110 195 -40 72
-81 144 -91 161 l-19 31 30 41 c61 85 227 189 425 266 104 41 99 40 113 24z
m280 -238 c44 -85 106 -202 137 -260 97 -176 107 -199 100 -221 -6 -18 -9 -19
-20 -8 -12 14 -227 406 -315 577 -36 68 -41 85 -29 93 22 13 39 -11 127 -181z
m-885 -202 c15 -29 52 -98 83 -153 53 -92 98 -175 308 -560 42 -77 76 -145 76
-151 0 -7 -25 -15 -57 -19 -112 -14 -314 -97 -482 -198 -52 -32 -98 -54 -102
-50 -3 5 -64 116 -134 248 -70 132 -144 269 -165 305 -20 36 -57 106 -83 156
-25 49 -64 121 -86 160 -47 80 -55 67 85 150 133 78 264 132 389 158 11 2 47
4 80 5 l61 1 27 -52z m-650 -430 c63 -109 357 -671 353 -675 -19 -19 -51 21
-117 145 -40 75 -121 227 -180 336 -97 181 -117 236 -89 236 5 0 19 -19 33
-42z m1806 -155 c0 -10 -529 -271 -529 -262 0 23 232 149 425 230 95 40 105
44 104 32z m-849 -439 c-36 -19 -132 -69 -214 -111 -82 -41 -166 -85 -187 -99
-43 -27 -49 -28 -49 -14 0 28 444 259 500 259 8 0 -14 -15 -50 -35z"/>
<path d="M1895 4131 c-171 -69 -302 -144 -379 -216 -27 -25 -28 -28 -12 -43
11 -12 20 -14 29 -7 104 78 320 193 422 225 51 16 55 20 44 48 -11 28 -19 27
-104 -7z"/>
<path d="M1929 4001 c-131 -52 -240 -113 -332 -186 -39 -32 -45 -46 -24 -63 9
-8 33 4 92 44 90 63 215 128 322 168 79 30 86 36 77 60 -9 23 -28 20 -135 -23z"/>
<path d="M1973 3881 c-162 -71 -353 -189 -353 -219 0 -5 6 -14 13 -20 9 -8 34
3 97 45 99 64 208 120 317 164 43 17 79 32 81 34 7 7 -19 45 -31 45 -7 0 -62
-22 -124 -49z"/>
<path d="M2095 3791 c-126 -51 -168 -71 -260 -127 -119 -72 -158 -105 -149
-127 9 -26 24 -21 95 29 74 53 244 140 339 174 81 29 85 32 63 58 l-18 21 -70
-28z"/>
<path d="M2120 3662 c-111 -45 -211 -98 -296 -157 -79 -57 -86 -65 -68 -89 13
-18 16 -17 66 21 93 70 290 171 406 207 16 6 22 14 20 29 -4 32 -23 31 -128
-11z"/>
<path d="M2188 3551 c-116 -46 -209 -96 -305 -165 -74 -52 -83 -65 -60 -85 11
-8 33 2 98 46 83 56 238 134 334 168 61 22 67 27 60 48 -11 28 -30 26 -127
-12z"/>
<path d="M1264 3780 c-116 -23 -287 -97 -401 -173 -67 -45 -76 -56 -62 -78 7
-12 16 -10 51 10 182 103 322 163 451 191 58 13 62 16 51 44 -7 17 -26 18 -90
6z"/>
<path d="M1340 3670 c-165 -40 -480 -194 -480 -235 0 -32 26 -34 70 -3 101 69
339 166 450 184 42 7 53 27 28 52 -13 13 -18 14 -68 2z"/>
<path d="M1300 3521 c-174 -57 -380 -167 -380 -203 0 -32 20 -29 89 12 104 62
257 126 373 156 56 15 104 29 106 30 2 1 -3 11 -10 23 -18 29 -43 26 -178 -18z"/>
<path d="M1445 3433 c-157 -37 -465 -186 -465 -225 0 -33 25 -30 96 12 129 75
381 169 457 170 18 0 21 8 11 34 -6 16 -52 20 -99 9z"/>
<path d="M1500 3309 c-125 -32 -201 -60 -294 -106 -119 -59 -166 -92 -166
-114 0 -33 19 -30 97 16 108 62 229 112 357 145 59 16 111 32 114 35 7 7 -10
38 -24 41 -5 2 -43 -6 -84 -17z"/>
<path d="M1625 3204 c-11 -2 -45 -9 -75 -15 -113 -22 -285 -93 -397 -165 -50
-32 -65 -55 -43 -69 5 -3 74 25 152 64 154 75 232 102 346 123 39 7 72 16 72
21 0 14 -20 47 -28 46 -4 -1 -16 -3 -27 -5z"/>
<path d="M8306 4256 c-27 -8 -60 -26 -76 -42 -37 -37 -370 -781 -370 -825 0
-45 33 -100 74 -124 39 -22 228 -109 471 -215 61 -26 146 -65 190 -85 172 -79
467 -211 537 -241 104 -44 170 -38 225 18 31 33 64 96 148 293 24 55 56 129
73 165 16 36 53 119 82 185 29 66 56 125 60 130 22 31 30 80 19 119 -20 75
-38 89 -199 157 -129 55 -150 67 -146 83 6 24 -15 76 -41 99 -18 16 -207 102
-403 184 -47 19 -116 48 -154 65 -89 39 -144 34 -191 -18 -19 -20 -35 -30 -41
-25 -9 9 -198 92 -205 90 -2 0 -26 -6 -53 -13z m191 -115 c148 -66 331 -145
484 -210 163 -69 189 -84 173 -101 -7 -7 -119 36 -395 155 -211 90 -396 165
-410 165 -14 0 -33 -6 -42 -12 -9 -7 -68 -132 -130 -278 -63 -146 -133 -306
-156 -356 -46 -103 -50 -133 -20 -152 12 -8 161 -76 332 -152 172 -76 368
-164 437 -195 496 -224 490 -222 522 -173 8 13 52 109 98 213 46 105 119 268
162 363 52 112 78 182 76 200 -4 32 -8 34 -225 128 -84 37 -153 70 -153 75 0
24 38 16 161 -37 172 -72 229 -101 245 -122 21 -27 16 -82 -12 -142 -15 -30
-91 -198 -169 -374 -79 -175 -154 -329 -166 -342 -46 -49 -68 -45 -289 56 -74
34 -169 77 -210 95 -41 18 -106 47 -145 65 -38 18 -212 95 -385 172 -173 76
-321 146 -327 155 -25 33 -12 81 70 269 46 104 116 263 156 354 40 91 79 175
87 188 35 53 101 51 231 -7z m319 -2 c55 -22 164 -69 244 -103 80 -35 160 -69
178 -76 35 -14 82 -47 82 -58 0 -4 -4 -13 -9 -21 -7 -10 -27 -5 -102 27 -52
22 -193 81 -314 132 -121 51 -224 96 -229 101 -12 11 12 39 34 39 10 0 62 -18
116 -41z m-276 -186 c58 -25 128 -56 155 -69 28 -12 114 -52 192 -87 78 -35
151 -70 163 -78 l22 -14 -42 -95 c-93 -211 -160 -369 -160 -380 0 -25 -33 -18
-138 30 -62 27 -210 91 -330 141 -119 50 -221 95 -226 99 -5 5 -1 29 11 57 68
158 157 365 175 406 26 57 22 58 178 -10z m830 -288 c65 -34 79 -98 31 -146
-35 -34 -72 -37 -118 -10 -60 37 -49 127 20 156 40 18 33 18 67 0z m-124 -330
c25 -10 40 -26 54 -57 24 -52 25 -89 4 -133 -58 -122 -246 -78 -246 57 0 57
24 103 65 128 38 24 75 25 123 5z"/>
<path d="M8395 3909 c-4 -11 -5 -22 -3 -23 10 -7 187 -86 193 -86 3 0 5 10 3
23 -2 17 -23 32 -88 64 -47 24 -88 43 -92 43 -4 0 -10 -9 -13 -21z"/>
<path d="M8346 3793 c-9 -22 -2 -27 83 -63 49 -20 78 -27 84 -21 16 16 -9 37
-79 71 -74 35 -80 36 -88 13z"/>
<path d="M8297 3680 c-4 -17 5 -25 61 -51 93 -42 112 -46 112 -22 0 13 -21 29
-75 56 -42 20 -79 37 -84 37 -5 0 -11 -9 -14 -20z"/>
<path d="M8255 3569 c-4 -11 -3 -25 2 -29 15 -15 135 -60 144 -54 23 14 3 35
-58 65 -38 18 -71 34 -75 36 -4 2 -10 -6 -13 -18z"/>
<path d="M9323 3629 c-31 -11 -48 -46 -35 -74 20 -43 86 -36 98 10 12 47 -21
80 -63 64z"/>
<path d="M9125 3245 c-40 -39 -27 -104 26 -126 38 -15 98 6 118 42 43 76 -81
148 -144 84z"/>
<path d="M9656 4138 c-9 -12 -16 -26 -16 -30 0 -11 38 -48 50 -48 15 0 50 38
50 54 0 20 -28 46 -50 46 -10 0 -26 -10 -34 -22z"/>
<path d="M7608 3316 c-16 -22 -16 -24 11 -50 l27 -26 25 26 24 26 -30 24 c-36
29 -36 29 -57 0z"/>
<path d="M7815 3160 c-18 -20 -18 -21 5 -38 32 -23 202 -132 485 -310 365
-230 323 -207 345 -187 19 17 18 18 -26 52 -45 35 -182 123 -434 281 -74 46
-183 115 -242 153 -59 38 -109 69 -111 69 -2 0 -12 -9 -22 -20z"/>
<path d="M2928 3145 c-9 -21 -8 -28 7 -45 10 -11 26 -20 36 -20 23 0 49 37 41
59 -14 39 -67 43 -84 6z"/>
<path d="M7318 3091 c-31 -25 -110 -190 -111 -235 -1 -48 22 -78 94 -116 37
-19 102 -69 154 -119 265 -253 409 -340 697 -417 73 -20 156 -48 183 -63 28
-16 97 -49 155 -75 58 -27 162 -75 232 -107 121 -57 163 -67 216 -55 118 27
176 177 118 303 -27 58 20 31 -426 245 -96 47 -245 125 -330 175 -309 180
-894 483 -933 483 -13 0 -35 -9 -49 -19z m35 -83 c-39 -96 -66 -146 -70 -127
-8 33 66 189 89 189 4 0 -5 -28 -19 -62z m197 -54 c45 -18 47 -23 22 -54 -17
-22 -19 -22 -49 -6 -39 20 -46 30 -38 56 8 24 13 25 65 4z m-35 -108 c33 -18
117 -65 187 -104 154 -86 699 -369 721 -373 13 -4 13 -10 -6 -54 -38 -87 -46
-96 -66 -86 -10 6 -91 31 -180 56 -248 70 -357 130 -564 314 -65 58 -139 122
-163 141 -23 19 -43 39 -44 45 0 19 35 95 45 95 6 0 37 -15 70 -34z m940 -388
c28 -13 30 -17 13 -41 -12 -16 -16 -14 -41 18 -30 38 -21 45 28 23z m121 -53
c3 -8 -17 -64 -45 -124 -28 -60 -51 -114 -51 -120 0 -13 -20 -14 -37 -3 -8 5
-2 28 24 82 19 41 46 99 58 128 24 52 41 65 51 37z m100 -46 c7 -11 -104 -259
-116 -259 -4 0 -12 6 -17 13 -7 8 7 49 46 134 53 115 70 138 87 112z m101 -58
c-7 -20 -108 -244 -113 -250 -3 -3 -11 2 -19 10 -13 12 -10 24 19 89 75 168
80 177 99 172 12 -3 17 -11 14 -21z m91 -29 c9 -6 -2 -39 -45 -135 -32 -70
-60 -127 -63 -127 -3 0 -11 4 -19 9 -12 8 -4 32 45 135 32 69 61 126 64 126 3
0 11 -4 18 -8z m106 -51 c3 -5 -14 -49 -37 -97 -24 -49 -49 -104 -56 -121 -9
-21 -20 -33 -32 -33 -25 0 -24 7 12 87 17 37 42 92 54 121 22 48 46 65 59 43z"/>
<path d="M3000 2902 c-41 -14 -162 -56 -268 -94 l-193 -69 -72 -77 c-87 -92
-117 -122 -378 -372 -112 -107 -239 -229 -281 -270 l-78 -75 168 -174 168
-175 120 115 c65 64 184 176 264 249 80 74 207 193 282 266 l138 132 64 173
c35 96 83 221 105 278 23 57 41 107 39 111 -2 4 -37 -4 -78 -18z m-121 -172
l38 -40 -17 -37 c-9 -21 -29 -73 -45 -116 -27 -74 -29 -76 -43 -56 -12 18 -21
20 -58 14 l-44 -6 0 56 0 57 -42 -4 c-41 -3 -41 -2 -56 40 -8 24 -12 44 -11
46 3 2 48 18 237 85 1 1 20 -17 41 -39z m-339 -203 c-14 -13 -99 -93 -190
-178 -199 -185 -276 -257 -398 -375 -52 -49 -99 -89 -105 -89 -42 0 2 51 239
276 413 391 446 420 464 403 13 -12 11 -17 -10 -37z m150 -136 c0 -5 -53 -58
-117 -117 -65 -60 -223 -207 -351 -329 -128 -121 -240 -221 -248 -223 -33 -8
-9 30 59 93 39 37 153 145 252 239 329 313 366 346 386 346 10 0 19 -4 19 -9z"/>
<path d="M5162 2827 c-92 -207 -302 -362 -566 -417 l-56 -11 15 -27 c8 -15 29
-44 47 -65 l33 -37 535 -4 535 -4 32 24 c18 14 46 44 62 68 l30 43 -72 18
c-249 60 -420 181 -529 374 l-46 83 -20 -45z m58 -357 l0 -140 -34 0 c-44 0
-47 11 -45 138 2 137 4 142 45 142 l34 0 0 -140z"/>
<path d="M6926 2724 c-9 -8 -16 -22 -16 -29 0 -18 27 -45 45 -45 19 0 45 28
45 49 0 38 -45 54 -74 25z"/>
<path d="M3392 2708 c-27 -27 -6 -68 34 -68 28 0 46 23 42 52 -2 17 -10 24
-33 26 -17 2 -36 -3 -43 -10z"/>
<path d="M2138 2665 c-30 -16 -47 -43 -49 -72 -1 -10 -33 -47 -72 -82 -40 -36
-144 -133 -232 -216 -88 -83 -198 -187 -245 -230 -47 -44 -93 -90 -104 -103
-10 -13 -25 -21 -33 -18 -21 9 -80 -19 -93 -44 -25 -46 20 -120 73 -120 40 0
87 35 87 65 0 18 51 72 212 222 117 109 262 245 322 303 60 58 118 113 128
123 10 9 29 17 42 17 40 0 78 40 79 83 2 64 -60 102 -115 72z"/>
<path d="M3398 2547 c-9 -7 -20 -25 -23 -40 -6 -22 -3 -28 19 -38 23 -11 29
-9 51 11 27 26 32 49 13 68 -15 15 -38 15 -60 -1z"/>
<path d="M3642 2498 c-7 -7 -12 -21 -12 -33 0 -46 48 -60 74 -23 20 28 20 33
0 52 -18 19 -45 21 -62 4z"/>
<path d="M6870 2430 c0 -20 -6 -32 -17 -36 -10 -3 -33 -12 -52 -20 -31 -14
-35 -14 -55 6 -12 11 -26 20 -32 20 -5 0 -29 -17 -54 -39 -44 -38 -44 -38 -27
-64 15 -24 15 -27 -6 -66 -18 -34 -27 -41 -53 -41 -27 0 -32 -5 -42 -39 -18
-57 -15 -82 8 -88 17 -5 20 -14 20 -64 0 -52 -2 -59 -20 -59 -13 0 -20 -7 -20
-19 0 -13 -14 -24 -45 -35 -25 -10 -48 -22 -51 -28 -4 -6 17 -59 46 -118 l53
-107 80 44 c91 48 90 48 107 29 6 -8 35 -20 63 -26 67 -14 75 -19 79 -55 3
-30 3 -30 76 -33 l72 -3 0 28 c0 26 6 31 53 46 28 10 61 17 72 17 11 -1 32 2
46 5 22 6 45 -8 155 -97 71 -56 135 -108 144 -115 13 -10 12 -15 -9 -37 -21
-22 -26 -23 -35 -11 -10 13 -14 13 -40 0 -26 -14 -31 -14 -52 0 -13 8 -28 24
-34 36 -9 16 -17 19 -40 14 -19 -4 -45 1 -76 14 -56 25 -87 27 -104 6 -7 -9
-26 -25 -42 -36 -25 -18 -33 -19 -58 -9 -27 11 -32 9 -73 -24 -36 -29 -43 -41
-39 -61 8 -44 -22 -40 -100 13 -39 28 -76 48 -80 46 -5 -3 -19 -27 -32 -53
l-25 -48 80 -78 c71 -71 77 -80 64 -95 -21 -24 -9 -121 16 -127 10 -3 29 -24
42 -48 21 -36 22 -45 10 -60 -20 -28 -16 -48 17 -80 24 -23 32 -26 44 -16 26
21 61 10 64 -22 4 -29 19 -41 69 -50 20 -4 35 -1 43 7 12 15 80 11 113 -6 9
-5 33 -6 53 -2 29 5 39 14 50 41 18 42 39 51 65 27 19 -17 21 -17 61 23 40 40
41 42 25 66 -14 22 -14 27 6 70 16 33 28 46 43 47 26 0 34 18 34 77 0 36 -4
46 -20 50 -13 3 -20 14 -20 28 0 12 -7 40 -16 61 l-16 38 80 78 c44 43 86 78
95 78 8 0 18 -11 21 -25 6 -23 11 -25 65 -25 56 0 59 1 64 28 8 38 80 69 112
48 21 -14 25 -12 64 28 38 39 40 43 26 63 -13 19 -12 26 8 72 16 38 27 51 43
51 18 0 22 8 28 46 9 69 8 74 -19 84 -14 5 -28 18 -31 27 -2 10 -16 39 -29 65
-21 40 -22 48 -10 58 22 18 18 33 -18 68 -36 35 -58 40 -77 18 -10 -13 -18
-12 -56 7 -28 13 -47 30 -50 44 -5 20 -12 23 -55 23 -27 0 -52 1 -56 3 -5 1
-9 -10 -11 -25 -2 -17 -9 -28 -19 -28 -8 0 -30 -7 -49 -16 -32 -15 -36 -15
-53 0 -25 23 -32 21 -76 -24 -32 -33 -36 -42 -26 -54 11 -13 9 -23 -7 -58 -12
-24 -24 -55 -27 -70 -5 -21 -13 -28 -31 -28 -13 0 -24 -6 -24 -12 0 -7 -4 -19
-9 -27 -7 -11 -15 -9 -40 10 -39 29 -40 48 -1 55 25 5 31 14 44 58 15 49 15
52 -4 65 -31 21 -28 86 6 108 28 18 29 44 5 107 -9 23 -15 27 -36 22 -21 -5
-29 0 -51 34 -24 36 -26 43 -14 65 12 22 11 27 -6 46 -10 12 -32 30 -47 41
l-28 20 -23 -21 c-22 -20 -22 -21 -71 -2 -40 15 -51 24 -58 50 -7 31 -8 31
-72 31 l-65 0 0 -30z m172 -137 c68 -27 116 -71 149 -139 28 -57 31 -70 27
-136 -13 -256 -299 -369 -483 -191 -86 83 -106 217 -50 327 34 67 89 119 149
140 57 20 156 20 208 -1z m707 -314 c138 -29 211 -165 170 -314 -22 -78 -132
-155 -224 -155 -48 0 -120 34 -166 79 -129 125 -69 337 111 392 36 11 53 10
109 -2z m-473 -634 c58 -36 110 -115 120 -183 16 -105 -39 -214 -131 -261 -40
-21 -64 -26 -125 -26 -64 0 -82 4 -122 27 -88 52 -128 124 -128 229 0 100 70
201 161 236 19 7 66 11 105 10 59 -2 79 -7 120 -32z"/>
<path d="M6865 2238 c-47 -17 -92 -55 -119 -101 -33 -58 -40 -99 -26 -157 25
-105 108 -171 213 -171 208 0 306 245 152 380 -67 58 -144 76 -220 49z m116
-49 c78 -26 123 -95 117 -176 -8 -89 -63 -144 -150 -150 -60 -4 -116 21 -151
68 -21 29 -33 103 -23 143 9 37 55 87 101 107 47 22 61 23 106 8z"/>
<path d="M7645 1918 c-72 -26 -125 -96 -125 -166 0 -74 63 -151 138 -172 85
-22 186 38 213 128 22 75 -25 167 -106 203 -45 21 -76 22 -120 7z m123 -50
c87 -53 81 -182 -10 -238 -18 -11 -47 -20 -64 -20 -60 0 -144 82 -144 139 0
46 41 104 90 129 50 25 74 23 128 -10z"/>
<path d="M7070 1304 c-196 -85 -134 -373 81 -374 67 0 157 68 179 136 50 152
-113 302 -260 238z m147 -55 c92 -57 87 -202 -10 -254 -102 -55 -233 45 -207
158 22 102 130 149 217 96z"/>
<path d="M1544 2386 c-15 -24 -15 -28 0 -52 24 -36 76 -31 90 9 13 37 -2 61
-42 65 -24 2 -34 -3 -48 -22z"/>
<path d="M4130 2294 c-30 -7 -122 -29 -205 -48 -82 -19 -259 -60 -392 -93
-217 -52 -243 -60 -243 -78 0 -11 11 -65 25 -120 13 -55 20 -101 15 -103 -24
-9 -91 -65 -116 -97 -20 -27 -24 -39 -15 -48 8 -8 27 4 76 53 36 35 65 58 65
50 0 -24 -188 -210 -205 -203 -26 9 -48 -62 -42 -137 3 -36 8 -74 12 -85 5
-17 3 -16 -15 5 -12 14 -56 60 -96 103 l-74 77 -100 -87 c-55 -48 -100 -95
-100 -104 0 -16 132 -171 200 -234 l32 -30 -133 -126 -133 -127 -26 28 c-74
80 -197 31 -193 -76 5 -131 185 -245 266 -170 39 36 44 68 23 141 -5 16 20 45
124 144 l131 123 113 -118 114 -118 63 55 c35 30 113 97 174 149 184 158 225
192 365 305 74 60 138 118 141 129 44 146 113 387 165 581 36 132 67 248 70
258 6 20 -8 21 -86 1z m-69 -190 c-11 -33 -53 -178 -95 -323 -41 -145 -77
-266 -79 -268 -3 -2 -52 4 -109 13 l-105 16 -7 86 -6 85 168 171 c154 156 213
228 198 243 -10 10 -80 -50 -246 -213 l-165 -161 -60 8 c-33 4 -67 8 -76 8
-12 1 -23 31 -43 122 -16 66 -26 122 -24 124 5 5 554 140 618 152 25 5 46 6
48 2 2 -4 -6 -33 -17 -65z m-272 -683 c1 0 -58 -52 -132 -113 -74 -62 -175
-148 -225 -190 -50 -43 -93 -78 -96 -78 -6 0 -40 65 -50 95 -5 18 -1 20 34 21
49 2 96 29 253 147 67 51 133 99 147 108 20 13 49 17 69 10z m-617 -353 c53
-57 87 -102 83 -109 -5 -7 -70 50 -172 152 -179 178 -247 255 -237 271 7 11
174 -150 326 -314z m-577 -227 c3 -10 28 -37 55 -60 53 -45 63 -74 30 -91 -53
-28 -169 97 -140 151 14 24 47 25 55 0z"/>
<path d="M2732 1896 l-357 -356 24 -19 24 -18 348 345 c192 190 349 353 349
363 0 9 -7 22 -15 29 -14 11 -66 -38 -373 -344z"/>
<path d="M4614 2216 c-44 -20 -64 -52 -64 -107 0 -52 26 -94 69 -111 32 -12
1101 -11 1134 1 47 18 80 81 70 135 -3 15 -19 41 -36 57 l-30 30 -143 -2 c-79
-1 -144 -6 -144 -10 0 -4 -20 -6 -45 -5 -27 1 -45 -2 -45 -8 0 -6 -5 -4 -10 4
-9 13 -10 13 -10 0 0 -13 -1 -13 -10 0 -6 10 -10 11 -10 2 0 -14 -21 -12 -32
3 -5 6 -8 6 -8 -2 0 -6 -9 -10 -20 -8 -11 2 -20 -2 -20 -8 0 -8 -3 -8 -8 -2
-4 6 -14 10 -22 10 -8 0 -18 -4 -22 -10 -5 -6 -8 -4 -8 5 0 13 -1 13 -10 0 -9
-13 -10 -13 -10 0 0 13 -1 13 -10 0 -8 -12 -10 -12 -10 -1 0 11 -3 11 -15 1
-12 -10 -15 -10 -15 1 0 11 -2 11 -10 -1 -8 -12 -10 -12 -10 -1 0 11 -3 11
-15 1 -12 -10 -15 -9 -16 6 0 15 -2 16 -7 4 -9 -18 -32 -24 -32 -8 0 6 -7 3
-15 -8 -14 -19 -14 -19 -15 1 0 17 -2 17 -10 5 -9 -13 -11 -13 -20 0 -5 8 -10
10 -10 5 0 -6 -13 -11 -30 -10 -16 0 -30 5 -30 12 0 17 -17 25 -26 12 -4 -8
-3 -9 4 -5 7 4 12 1 12 -9 0 -9 -4 -13 -10 -10 -5 3 -11 0 -11 -7 -1 -7 -5 1
-9 17 -6 23 -8 25 -9 8 -2 -31 -21 -39 -21 -9 0 14 -4 26 -9 26 -5 0 -7 -10
-3 -22 5 -21 4 -22 -13 -8 -15 12 -17 12 -10 1 6 -11 4 -13 -8 -8 -10 4 -17 2
-17 -5 0 -7 -5 -6 -15 2 -12 10 -15 10 -15 -1 0 -12 -2 -12 -9 -1 -10 17 -21
17 -31 2 -5 -9 -10 -6 -15 9 -3 12 -11 19 -16 15 -5 -3 -6 -11 -2 -17 4 -7 0
-6 -10 2 -11 9 -17 10 -17 2 0 -6 -5 -11 -12 -11 -6 0 -1 11 12 25 27 29 14
32 -36 11z"/>
<path d="M6143 2080 l-21 -9 28 -78 c34 -94 51 -133 60 -133 3 0 14 6 23 13
16 11 15 19 -16 111 -18 55 -38 101 -43 102 -5 2 -19 -1 -31 -6z"/>
<path d="M4627 1936 c-51 -19 -62 -29 -76 -77 -11 -36 -10 -45 9 -85 40 -82
16 -79 605 -82 286 -2 534 0 552 3 78 14 128 100 99 169 -8 20 -30 45 -48 56
-29 19 -43 21 -112 15 -44 -3 -86 -11 -93 -17 -10 -8 -13 -7 -13 3 0 12 -2 12
-9 1 -4 -8 -12 -14 -16 -14 -4 0 -12 6 -16 14 -7 10 -9 8 -10 -7 0 -11 -3 -14
-6 -7 -2 6 -11 12 -19 12 -8 0 -14 -6 -14 -12 0 -9 -4 -8 -10 2 -9 13 -10 13
-10 0 0 -13 -1 -13 -10 0 -5 8 -10 10 -10 5 0 -16 -70 -18 -70 -3 0 9 -3 8
-10 -2 -9 -13 -10 -13 -10 0 0 13 -1 13 -11 0 -8 -12 -12 -12 -16 -2 -4 10 -9
9 -20 -5 -11 -14 -14 -15 -10 -2 3 9 -1 16 -9 16 -8 0 -14 -5 -14 -12 0 -17
-40 -13 -40 5 -1 12 -2 12 -11 -2 -12 -21 -62 -21 -55 -1 8 19 -4 16 -21 -4
-7 -10 -13 -13 -12 -8 4 31 -3 38 -16 15 -12 -22 -14 -22 -15 -6 0 20 0 20
-15 0 -13 -18 -14 -18 -15 -1 0 17 -1 17 -16 3 -20 -21 -25 -20 -17 2 6 15 3
14 -17 -3 -13 -11 -21 -15 -17 -10 3 6 2 17 -4 25 -7 12 -9 11 -9 -5 0 -29
-40 -29 -41 0 0 20 0 20 -9 -1 -5 -14 -16 -20 -32 -18 -34 4 -34 4 -19 13 8 5
10 14 6 21 -6 9 -14 2 -26 -21 -10 -19 -18 -28 -19 -21 0 7 -4 10 -10 7 -5 -3
-10 -1 -10 5 0 8 -7 9 -17 5 -32 -13 -58 -11 -78 4 -18 15 -19 15 -7 -1 12
-15 11 -17 -6 -15 -14 1 -18 6 -14 22 5 18 2 17 -34 -9 l-39 -29 34 36 c38 40
35 43 -22 23z"/>
<path d="M4825 1931 c-3 -5 -1 -12 5 -16 5 -3 10 1 10 9 0 18 -6 21 -15 7z"/>
<path d="M4895 1920 c-3 -5 -1 -10 4 -10 6 0 11 5 11 10 0 6 -2 10 -4 10 -3 0
-8 -4 -11 -10z"/>
<path d="M1620 1865 c-33 -32 -60 -65 -60 -73 0 -8 75 -93 167 -188 l167 -175
68 68 c37 37 67 71 66 74 -4 8 -295 307 -325 333 -22 18 -22 18 -83 -39z m98
-47 c31 -31 -11 -88 -50 -67 -22 12 -23 37 -1 61 19 21 34 23 51 6z"/>
<path d="M5166 1908 c3 -5 10 -6 15 -3 13 9 11 12 -6 12 -8 0 -12 -4 -9 -9z"/>
<path d="M1473 1707 c-86 -91 -93 -196 -18 -298 85 -118 269 -134 364 -34 l33
35 -163 173 c-89 94 -163 173 -164 175 -1 1 -24 -22 -52 -51z m102 -81 c13
-19 14 -29 5 -45 -12 -24 -23 -26 -51 -11 -33 18 -19 80 18 80 7 0 20 -11 28
-24z"/>
<path d="M4610 1642 c-58 -29 -76 -91 -44 -157 31 -67 26 -66 631 -61 583 5
584 5 611 58 25 48 19 98 -15 132 l-26 26 -333 0 c-184 -1 -336 -5 -338 -9 -3
-5 -17 -7 -31 -6 -14 2 -25 0 -25 -4 0 -4 -9 -7 -20 -7 -11 0 -20 5 -20 11 0
6 -3 7 -8 0 -4 -5 -16 -10 -27 -10 -11 0 -23 5 -27 10 -5 6 -11 5 -17 -3 -7
-11 -9 -11 -14 2 -9 24 -27 19 -28 -6 -1 -22 -1 -22 -9 2 l-8 25 -1 -25 c-2
-25 -2 -25 -16 5 l-14 30 4 -30 c3 -16 2 -24 -1 -17 -5 10 -9 10 -20 1 -11 -9
-14 -9 -14 1 0 10 -3 10 -15 0 -12 -10 -15 -10 -15 1 0 11 -2 11 -10 -1 -6 -9
-10 -10 -10 -3 0 14 -40 13 -40 -2 0 -5 -4 -3 -9 5 -6 8 -7 18 -4 24 3 5 1 6
-6 2 -6 -4 -9 -11 -6 -16 3 -4 -2 -10 -10 -13 -10 -4 -12 -1 -8 11 6 15 3 14
-15 -2 -28 -24 -29 -7 -2 22 25 27 9 29 -40 4z"/>
<path d="M8363 1468 c-28 -14 -36 -47 -17 -75 30 -47 94 -24 94 33 0 13 -10
30 -22 38 -26 18 -26 18 -55 4z"/>
<path d="M6368 1463 c-24 -6 -23 -15 20 -118 31 -74 41 -89 57 -87 11 2 24 7
28 12 9 8 -66 193 -80 196 -4 1 -16 0 -25 -3z"/>
<path d="M2245 1410 c-24 -25 -27 -34 -19 -48 15 -23 24 -22 64 10 29 23 33
30 24 45 -18 28 -37 26 -69 -7z"/>
<path d="M4600 1358 c-86 -59 -58 -188 46 -217 26 -7 218 -11 557 -11 490 0
520 1 555 19 45 23 64 55 66 108 1 50 -25 90 -71 109 -36 16 -219 19 -228 4
-3 -4 -18 -6 -35 -5 -17 1 -30 -2 -30 -9 0 -6 -5 -4 -10 4 -7 11 -10 11 -10 2
0 -7 -4 -10 -10 -7 -5 3 -10 0 -10 -7 0 -9 -3 -9 -10 2 -9 13 -10 13 -10 0 0
-13 -1 -13 -10 0 -5 8 -10 10 -10 4 0 -13 -52 -12 -62 1 -5 6 -8 4 -8 -5 0
-13 -1 -13 -10 0 -6 10 -10 11 -10 3 0 -7 -7 -13 -15 -13 -8 0 -15 5 -15 11 0
6 -7 3 -16 -6 -10 -9 -20 -13 -23 -8 -7 10 -43 9 -61 -2 -9 -5 -11 -4 -6 3 4
7 2 12 -3 12 -6 0 -11 -6 -12 -12 0 -7 -4 -4 -9 7 -5 11 -9 14 -9 6 -1 -7 -7
-11 -16 -7 -8 3 -15 0 -15 -6 0 -7 -5 -6 -15 2 -8 7 -15 8 -15 2 0 -5 -11 -9
-25 -9 -14 0 -25 4 -25 9 0 6 -7 5 -15 -2 -12 -10 -15 -9 -15 6 0 12 -3 15 -8
8 -4 -6 -23 -11 -42 -12 -26 -1 -31 2 -20 9 13 9 13 10 0 6 -8 -2 -14 -11 -14
-19 1 -13 -2 -14 -24 -2 -14 7 -29 19 -34 26 -8 10 -9 9 -5 -3 7 -21 -26 -42
-42 -26 -9 9 -14 9 -20 -2 -7 -11 -9 -11 -13 0 -4 12 -8 11 -23 -1 -15 -12
-17 -12 -10 -1 5 10 4 12 -3 7 -18 -11 -37 4 -21 16 10 7 8 8 -6 3 -11 -4 -26
-8 -32 -8 -7 0 -13 -3 -13 -7 0 -3 6 -12 13 -20 10 -12 9 -12 -5 -1 -9 7 -23
9 -30 5 -7 -4 0 7 16 24 27 29 28 32 9 32 -11 0 -35 -10 -53 -22z m90 -28 c0
-5 -2 -10 -4 -10 -3 0 -8 5 -11 10 -3 6 -1 10 4 10 6 0 11 -4 11 -10z"/>
<path d="M4860 1359 c0 -5 5 -7 10 -4 6 3 10 8 10 11 0 2 -4 4 -10 4 -5 0 -10
-5 -10 -11z"/>
<path d="M6211 1079 c-11 -24 -21 -59 -21 -76 0 -31 -2 -33 -37 -33 -56 0 -82
-10 -89 -32 -10 -31 17 -50 75 -51 51 -2 51 -2 51 -35 0 -41 28 -104 44 -99
17 5 46 69 46 102 0 29 2 30 43 30 61 1 77 10 77 44 0 32 -17 41 -81 41 -35 0
-37 1 -41 43 -3 23 -15 58 -26 76 l-21 35 -20 -45z"/>
<path d="M4612 1073 c-83 -41 -83 -175 1 -220 29 -17 75 -18 572 -18 614 0
589 -3 626 80 31 70 5 137 -60 155 -23 7 -140 10 -331 7 -334 -5 -352 -6 -362
-21 -5 -7 -8 -6 -8 3 0 11 -3 11 -15 1 -11 -9 -15 -9 -15 -1 0 9 -5 9 -20 1
-15 -8 -20 -8 -20 2 0 9 -3 10 -8 2 -4 -6 -16 -10 -27 -8 -11 2 -23 -2 -27 -9
-5 -7 -8 -3 -8 12 l0 23 -20 -23 -19 -24 -1 25 c-1 23 -2 23 -10 5 l-9 -20 -1
20 c-1 11 -4 14 -7 7 -2 -6 -9 -10 -14 -6 -5 3 -9 -2 -9 -10 0 -17 -40 -18
-52 -1 -5 6 -8 5 -8 -3 0 -8 -9 -11 -25 -8 -14 3 -25 1 -25 -4 0 -5 -7 -7 -15
-4 -11 4 -13 13 -9 28 6 18 5 19 -9 8 -9 -8 -13 -21 -10 -30 4 -15 3 -15 -6
-2 -10 13 -12 13 -21 0 -6 -9 -10 -10 -10 -3 0 7 10 21 22 33 27 25 7 27 -40
3z"/>
<path d="M3958 951 c-3 -108 -3 -108 -36 -136 -36 -30 -41 -63 -14 -88 28 -25
67 -21 91 9 18 23 21 41 21 130 l0 104 65 0 65 0 0 -45 c0 -31 -4 -45 -13 -45
-26 0 -49 -37 -45 -71 4 -44 45 -61 86 -38 27 15 27 15 30 145 l3 131 -62 7
c-34 3 -90 6 -124 6 l-63 0 -4 -109z"/>
<path d="M4796 773 c20 -83 102 -174 194 -216 122 -56 312 -47 425 18 74 44
142 128 159 198 l6 27 -395 0 -395 0 6 -27z"/>
</g>
</svg>
